<svg width="96" height="96" viewBox="0 0 96 96" fill="none" xmlns="http://www.w3.org/2000/svg">
<g clip-path="url(#clip0_337_100)">
<path d="M92.8236 0H3.17647C1.422 0 0 1.58574 0 3.54223V68.8767C0 70.8332 1.422 72.4189 3.17647 72.4189H38.3372V88.9156H32.8236C31.0691 88.9156 29.6471 90.5013 29.6471 92.4578C29.6471 94.4143 31.0691 96 32.8236 96H63.1764C64.9309 96 66.3529 94.4143 66.3529 92.4578C66.3529 90.5013 64.9309 88.9156 63.1764 88.9156H57.6628V72.4189H92.8236C94.578 72.4189 96 70.8332 96 68.8767V3.54223C96 1.58574 94.578 0 92.8236 0ZM89.647 7.08446V50.3784H6.35294V7.08446H89.647ZM51.3099 88.9156H44.6901V72.4189H51.3099V88.9156ZM6.35294 65.3345V57.4629H89.647V65.3345H6.35294Z" fill="#707070"/>
</g>
<defs>
<clipPath id="clip0_337_100">
<rect width="96" height="96" fill="white"/>
</clipPath>
</defs>
</svg>
