<svg width="100" height="100" viewBox="0 0 100 100" fill="none" xmlns="http://www.w3.org/2000/svg">
<path d="M96.6912 0H3.30882C1.48125 0 0 1.65181 0 3.68982V71.7466C0 73.7846 1.48125 75.4364 3.30882 75.4364H39.9346V92.6204H34.1912C32.3636 92.6204 30.8824 94.2722 30.8824 96.3102C30.8824 98.3482 32.3636 100 34.1912 100H65.8088C67.6364 100 69.1176 98.3482 69.1176 96.3102C69.1176 94.2722 67.6364 92.6204 65.8088 92.6204H60.0654V75.4364H96.6912C98.5187 75.4364 100 73.7846 100 71.7466V3.68982C100 1.65181 98.5187 0 96.6912 0ZM93.3823 7.37965V52.4775H6.61765V7.37965H93.3823ZM53.4478 92.6204H46.5522V75.4364H53.4478V92.6204ZM6.61765 68.0568V59.8572H93.3823V68.0568H6.61765Z" fill="#707070"/>
</svg>
