<svg width="48" height="48" viewBox="0 0 48 48" fill="none" xmlns="http://www.w3.org/2000/svg">
<g clip-path="url(#clip0_683_139)">
<path d="M24 3C24 2.20435 24.3161 1.44129 24.8787 0.87868C25.4413 0.316071 26.2044 0 27 0L45 0C45.7956 0 46.5587 0.316071 47.1213 0.87868C47.6839 1.44129 48 2.20435 48 3V45C48 45.7956 47.6839 46.5587 47.1213 47.1213C46.5587 47.6839 45.7956 48 45 48H27C26.2044 48 25.4413 47.6839 24.8787 47.1213C24.3161 46.5587 24 45.7956 24 45V3ZM27 43.5C27 43.8978 27.158 44.2794 27.4393 44.5607C27.7206 44.842 28.1022 45 28.5 45C28.8978 45 29.2794 44.842 29.5607 44.5607C29.842 44.2794 30 43.8978 30 43.5C30 43.1022 29.842 42.7206 29.5607 42.4393C29.2794 42.158 28.8978 42 28.5 42C28.1022 42 27.7206 42.158 27.4393 42.4393C27.158 42.7206 27 43.1022 27 43.5ZM33 43.5C33 43.8978 33.158 44.2794 33.4393 44.5607C33.7206 44.842 34.1022 45 34.5 45C34.8978 45 35.2794 44.842 35.5607 44.5607C35.842 44.2794 36 43.8978 36 43.5C36 43.1022 35.842 42.7206 35.5607 42.4393C35.2794 42.158 34.8978 42 34.5 42C34.1022 42 33.7206 42.158 33.4393 42.4393C33.158 42.7206 33 43.1022 33 43.5ZM28.5 3C28.1022 3 27.7206 3.15804 27.4393 3.43934C27.158 3.72064 27 4.10218 27 4.5C27 4.89782 27.158 5.27936 27.4393 5.56066C27.7206 5.84196 28.1022 6 28.5 6H43.5C43.8978 6 44.2794 5.84196 44.5607 5.56066C44.842 5.27936 45 4.89782 45 4.5C45 4.10218 44.842 3.72064 44.5607 3.43934C44.2794 3.15804 43.8978 3 43.5 3H28.5ZM27 10.5C27 10.8978 27.158 11.2794 27.4393 11.5607C27.7206 11.842 28.1022 12 28.5 12H43.5C43.8978 12 44.2794 11.842 44.5607 11.5607C44.842 11.2794 45 10.8978 45 10.5C45 10.1022 44.842 9.72064 44.5607 9.43934C44.2794 9.15804 43.8978 9 43.5 9H28.5C28.1022 9 27.7206 9.15804 27.4393 9.43934C27.158 9.72064 27 10.1022 27 10.5ZM4.5 6C3.30653 6 2.16193 6.47411 1.31802 7.31802C0.474106 8.16193 0 9.30653 0 10.5L0 31.5C0 32.6935 0.474106 33.8381 1.31802 34.682C2.16193 35.5259 3.30653 36 4.5 36H18V42H16.5C16.1022 42 15.7206 42.158 15.4393 42.4393C15.158 42.7206 15 43.1022 15 43.5C15 43.8978 15.158 44.2794 15.4393 44.5607C15.7206 44.842 16.1022 45 16.5 45H21V33H4.5C4.10218 33 3.72064 32.842 3.43934 32.5607C3.15804 32.2794 3 31.8978 3 31.5V10.5C3 10.1022 3.15804 9.72064 3.43934 9.43934C3.72064 9.15804 4.10218 9 4.5 9H21V6H4.5Z" fill="#836825"/>
</g>
<defs>
<clipPath id="clip0_683_139">
<rect width="48" height="48" fill="white"/>
</clipPath>
</defs>
</svg>
