<svg width="30" height="30" viewBox="0 0 30 30" fill="none" xmlns="http://www.w3.org/2000/svg">
<path d="M2.72727 0C1.22045 0 0 1.21188 0 2.70811V27.0811C0 28.5773 1.22045 29.7892 2.72727 29.7892H27.2727C28.7795 29.7892 30 28.5773 30 27.0811V2.70811C30 1.21188 28.7795 0 27.2727 0H2.72727ZM18.4091 9.47837H21.8954C22.2718 9.47837 22.5772 9.78168 22.5772 10.1554C22.5772 10.5291 22.2718 10.8324 21.8954 10.8324H18.4091C18.0327 10.8324 17.7273 10.5291 17.7273 10.1554C17.7273 9.78168 18.0327 9.47837 18.4091 9.47837ZM6.70898 9.99936H10.5069C12.7487 9.99936 14.0865 11.0884 14.0865 12.8609C14.0865 14.0768 13.1807 15.1378 11.9957 15.3124V15.4552C13.5257 15.5663 14.6378 16.7112 14.6378 18.1898C14.6391 20.2006 13.1096 21.4744 10.6428 21.4744H6.70898C6.01626 21.4744 5.45455 20.9167 5.45455 20.2288V11.245C5.45455 10.5571 6.01626 9.99936 6.70898 9.99936ZM7.87287 11.8347V14.7544H9.68928C10.9956 14.7558 11.7081 14.222 11.7081 13.2999C11.7081 12.3859 11.0453 11.8347 9.89169 11.8347H7.87287ZM20.4039 12.5118C23.0071 12.5118 24.5428 14.1589 24.5428 16.9415V17.6476H18.4837V17.7667C18.515 19.0706 19.2848 19.8824 20.5025 19.8824C21.4229 19.8824 22.0547 19.5574 22.3029 18.9779H24.4735C24.1217 20.6325 22.5986 21.6648 20.4359 21.6648C17.7454 21.6648 16.1612 19.9782 16.1612 17.1319C16.1612 14.2776 17.7776 12.5118 20.4039 12.5118ZM20.4146 14.2863C19.3332 14.2863 18.5707 15.0319 18.4917 16.1693H22.255C22.2059 15.0089 21.5028 14.2863 20.4146 14.2863ZM7.87287 16.3782V19.6391H10.0275C11.4212 19.6391 12.1742 19.0559 12.1742 17.9835C12.1742 16.9328 11.3966 16.3782 9.97159 16.3782H7.87287Z" fill="#FFE292"/>
</svg>
