<svg width="30" height="30" viewBox="0 0 30 30" fill="none" xmlns="http://www.w3.org/2000/svg">
<g clip-path="url(#clip0_677_135)">
<path fill-rule="evenodd" clip-rule="evenodd" d="M0 15C0 23.2842 6.71575 30 15 30C23.2842 30 30 23.2842 30 15C30 6.71575 23.2842 0 15 0C6.71575 0 0 6.71575 0 15ZM24.4138 14.4259C24.4119 19.3427 20.4122 23.3433 15.4944 23.3453H15.4908C13.9979 23.3448 12.5311 22.9703 11.2283 22.2597L6.5 23.5L7.76537 18.878C6.98481 17.5253 6.57412 15.9909 6.57475 14.4189C6.57675 9.50106 10.578 5.5 15.4943 5.5C17.8804 5.50103 20.1199 6.42994 21.8039 8.11588C23.4879 9.80175 24.4148 12.0427 24.4138 14.4259Z" fill="#FFE292"/>
<path fill-rule="evenodd" clip-rule="evenodd" d="M8.64162 21.3811L11.4475 20.645L11.7182 20.8057C12.8564 21.4812 14.1612 21.8385 15.4915 21.8391H15.4945C19.5806 21.8391 22.9062 18.5133 22.9079 14.4255C22.9087 12.4446 22.1383 10.582 20.7386 9.18072C19.3389 7.7794 17.4776 7.00728 15.4974 7.00659C11.4081 7.00659 8.08244 10.332 8.08081 14.4195C8.08025 15.8203 8.47219 17.1845 9.21431 18.3648L9.39056 18.6453L8.64162 21.3811ZM19.6828 16.3464C19.8382 16.4215 19.9432 16.4722 19.9881 16.547C20.0437 16.64 20.0437 17.0862 19.8581 17.6069C19.6723 18.1275 18.782 18.6026 18.3537 18.6665C17.9698 18.724 17.4839 18.7479 16.9501 18.5782C16.6263 18.4755 16.2112 18.3384 15.6795 18.1088C13.5902 17.2066 12.1782 15.1816 11.9114 14.7988C11.8927 14.772 11.8796 14.7533 11.8723 14.7436L11.8705 14.7412C11.7526 14.5838 10.9622 13.5293 10.9622 12.4381C10.9622 11.4115 11.4666 10.8734 11.6987 10.6257C11.7146 10.6088 11.7292 10.5932 11.7423 10.5788C11.9466 10.3557 12.1881 10.3 12.3366 10.3C12.4852 10.3 12.6339 10.3013 12.7637 10.3078C12.7797 10.3087 12.7964 10.3085 12.8137 10.3085C12.9436 10.3077 13.1054 10.3067 13.2652 10.6904C13.3266 10.8381 13.4166 11.057 13.5114 11.2878C13.7031 11.7547 13.9151 12.2706 13.9523 12.3452C14.0081 12.4568 14.0452 12.5869 13.9709 12.7357C13.9597 12.758 13.9494 12.7791 13.9396 12.7992C13.8838 12.9131 13.8427 12.9969 13.7481 13.1075C13.7108 13.151 13.6723 13.1978 13.6338 13.2447C13.5572 13.338 13.4805 13.4314 13.4137 13.4979C13.3022 13.609 13.186 13.7297 13.316 13.9528C13.446 14.1759 13.8933 14.9057 14.5559 15.4967C15.2681 16.1319 15.8871 16.4004 16.2008 16.5365C16.2621 16.5631 16.3117 16.5846 16.3481 16.6028C16.5709 16.7144 16.7009 16.6958 16.8309 16.547C16.9609 16.3983 17.3881 15.8963 17.5366 15.6732C17.6851 15.4502 17.8338 15.4873 18.0381 15.5617C18.2424 15.6361 19.3381 16.1752 19.5609 16.2867C19.6044 16.3085 19.6451 16.3282 19.6828 16.3464Z" fill="#FFE292"/>
</g>
<defs>
<clipPath id="clip0_677_135">
<rect width="30" height="30" fill="white"/>
</clipPath>
</defs>
</svg>
