<svg width="35" height="45" viewBox="0 0 35 45" fill="none" xmlns="http://www.w3.org/2000/svg">
<path fill-rule="evenodd" clip-rule="evenodd" d="M17.5 0C7.825 0 0 7.23421 0 16.1787C0 25.8166 11.05 39.1063 15.6 44.1679C16.6 45.2773 18.425 45.2773 19.425 44.1679C23.95 39.1063 35 25.8166 35 16.1787C35 7.23421 27.175 0 17.5 0ZM17.5 21.9569C14.05 21.9569 11.25 19.3683 11.25 16.1787C11.25 12.9892 14.05 10.4006 17.5 10.4006C20.95 10.4006 23.75 12.9892 23.75 16.1787C23.75 19.3683 20.95 21.9569 17.5 21.9569Z" fill="#FFE292"/>
</svg>
