<svg width="30" height="40" viewBox="0 0 30 40" fill="none" xmlns="http://www.w3.org/2000/svg">
<path fill-rule="evenodd" clip-rule="evenodd" d="M15 0C6.70714 0 0 6.43041 0 14.3811C0 22.9481 9.47143 34.7612 13.3714 39.2604C14.2286 40.2465 15.7929 40.2465 16.65 39.2604C20.5286 34.7612 30 22.9481 30 14.3811C30 6.43041 23.2929 0 15 0ZM15 19.5172C12.0429 19.5172 9.64286 17.2162 9.64286 14.3811C9.64286 11.546 12.0429 9.24499 15 9.24499C17.9571 9.24499 20.3571 11.546 20.3571 14.3811C20.3571 17.2162 17.9571 19.5172 15 19.5172Z" fill="#B2B2B2"/>
</svg>
