<svg width="35" height="35" viewBox="0 0 35 35" fill="none" xmlns="http://www.w3.org/2000/svg">
<g clip-path="url(#clip0_7_107)">
<path fill-rule="evenodd" clip-rule="evenodd" d="M0 17.5C0 27.165 7.83504 35 17.5 35C27.165 35 35 27.165 35 17.5C35 7.83504 27.165 0 17.5 0C7.83504 0 0 7.83504 0 17.5ZM28.4828 16.8303C28.4805 22.5665 23.8142 27.2339 18.0768 27.2362H18.0725C16.3309 27.2356 14.6196 26.7986 13.0997 25.9696L7.58333 27.4167L9.0596 22.0243C8.14895 20.4462 7.66981 18.6561 7.67054 16.822C7.67288 11.0846 12.341 6.41667 18.0767 6.41667C20.8604 6.41787 23.4732 7.50159 25.4379 9.46852C27.4025 11.4354 28.4839 14.0498 28.4828 16.8303Z" fill="#FFE292"/>
<path fill-rule="evenodd" clip-rule="evenodd" d="M10.0818 24.9445L13.3553 24.0858L13.6711 24.2732C14.9991 25.0612 16.5213 25.4782 18.0733 25.4788H18.0768C22.8439 25.4788 26.7238 21.5988 26.7258 16.8297C26.7267 14.5186 25.8279 12.3456 24.1949 10.7107C22.562 9.07587 20.3904 8.17506 18.0802 8.17426C13.3094 8.17426 9.42939 12.0539 9.42749 16.8227C9.42683 18.457 9.88409 20.0485 10.7499 21.4255L10.9555 21.7528L10.0818 24.9445ZM22.9632 19.0707C23.1445 19.1583 23.267 19.2175 23.3193 19.3048C23.3843 19.4132 23.3843 19.9338 23.1677 20.5413C22.9509 21.1486 21.9122 21.7029 21.4126 21.7775C20.9647 21.8445 20.3978 21.8725 19.775 21.6745C19.3972 21.5547 18.913 21.3947 18.2926 21.1268C15.8551 20.0743 14.2078 17.7118 13.8965 17.2652C13.8747 17.2339 13.8594 17.2121 13.8509 17.2008L13.8488 17.1979C13.7112 17.0143 12.7892 15.7841 12.7892 14.511C12.7892 13.3133 13.3775 12.6855 13.6483 12.3966C13.6669 12.3768 13.6839 12.3586 13.6992 12.3419C13.9375 12.0816 14.2193 12.0165 14.3926 12.0165C14.5659 12.0165 14.7394 12.0181 14.8909 12.0257C14.9096 12.0267 14.9291 12.0265 14.9492 12.0264C15.1007 12.0255 15.2896 12.0244 15.4759 12.472C15.5476 12.6443 15.6525 12.8997 15.7631 13.169C15.9869 13.7137 16.2341 14.3156 16.2776 14.4027C16.3426 14.5328 16.3859 14.6846 16.2992 14.8582C16.2863 14.8843 16.2742 14.9088 16.2627 14.9322C16.1977 15.0652 16.1498 15.163 16.0393 15.2919C15.9958 15.3427 15.9509 15.3974 15.906 15.452C15.8166 15.5609 15.7271 15.6699 15.6493 15.7475C15.5191 15.8771 15.3835 16.0178 15.5352 16.2781C15.6869 16.5385 16.2087 17.3898 16.9817 18.0793C17.8126 18.8205 18.5348 19.1337 18.9008 19.2925C18.9723 19.3235 19.0302 19.3486 19.0727 19.3699C19.3326 19.5 19.4843 19.4783 19.636 19.3048C19.7876 19.1313 20.2859 18.5456 20.4593 18.2852C20.6325 18.0251 20.806 18.0684 21.0443 18.1552C21.2826 18.242 22.5609 18.8709 22.821 19.0011C22.8717 19.0265 22.9192 19.0494 22.9632 19.0707Z" fill="#FFE292"/>
</g>
<defs>
<clipPath id="clip0_7_107">
<rect width="35" height="35" fill="white"/>
</clipPath>
</defs>
</svg>
