<svg width="30" height="30" viewBox="0 0 30 30" fill="none" xmlns="http://www.w3.org/2000/svg">
<path d="M15 0C6.71625 0 0 6.66905 0 14.8946C0 23.1201 6.71625 29.7892 15 29.7892C23.2838 29.7892 30 23.1201 30 14.8946C30 6.66905 23.2838 0 15 0ZM9.37 6.70628C10.4225 6.70628 11.1238 7.40261 11.1238 8.33103C11.1238 9.25946 10.4225 9.95578 9.25375 9.95578C8.20125 9.95703 7.5 9.25946 7.5 8.33103C7.5 7.40261 8.20125 6.70628 9.37 6.70628ZM11.25 21.1007H7.5V11.1709H11.25V21.1007ZM23.75 21.1007H20.22V15.6741C20.22 14.1734 19.2788 13.8271 18.9263 13.8271C18.5738 13.8271 17.3962 14.058 17.3962 15.6741C17.3962 15.9049 17.3962 21.1007 17.3962 21.1007H13.75V11.1709H17.3975V12.5561C17.8675 11.7481 18.8088 11.1709 20.5737 11.1709C22.3387 11.1709 23.75 12.5561 23.75 15.6741V21.1007Z" fill="#FFE292"/>
</svg>
