<svg width="30" height="30" viewBox="0 0 30 30" fill="none" xmlns="http://www.w3.org/2000/svg">
<path d="M15 0C6.72923 0 0 6.68194 0 14.8946C0 23.1072 6.72923 29.7892 15 29.7892C23.2708 29.7892 30 23.1072 30 14.8946C30 6.68194 23.2708 0 15 0ZM11.1531 4.58295H18.8447C22.4504 4.58295 25.3846 7.49543 25.3846 11.0747V18.7122C25.3846 22.2926 22.4515 25.2062 18.8469 25.2062H11.1553C7.54958 25.2062 4.61538 22.2937 4.61538 18.7144V11.0769C4.61538 7.49652 7.54848 4.58295 11.1531 4.58295ZM11.1531 6.87442C8.82117 6.87442 6.92308 8.76027 6.92308 11.0769V18.7144C6.92308 21.03 8.82227 22.9147 11.1553 22.9147H18.8469C21.1788 22.9147 23.0769 21.0289 23.0769 18.7122V11.0747C23.0769 8.75918 21.1777 6.87442 18.8447 6.87442H11.1531ZM20.3861 8.78324C20.8107 8.78324 21.1546 9.12468 21.1546 9.54632C21.1546 9.96795 20.8107 10.3116 20.3861 10.3116C19.9615 10.3116 19.6154 9.96795 19.6154 9.54632C19.6154 9.12468 19.9615 8.78324 20.3861 8.78324ZM15 9.16589C18.1812 9.16589 20.7692 11.7358 20.7692 14.8946C20.7692 18.0534 18.1812 20.6233 15 20.6233C11.8188 20.6233 9.23077 18.0534 9.23077 14.8946C9.23077 11.7358 11.8188 9.16589 15 9.16589ZM15 11.4574C14.0819 11.4574 13.2015 11.8195 12.5523 12.4641C11.9032 13.1087 11.5385 13.983 11.5385 14.8946C11.5385 15.8062 11.9032 16.6805 12.5523 17.3251C13.2015 17.9697 14.0819 18.3318 15 18.3318C15.9181 18.3318 16.7985 17.9697 17.4477 17.3251C18.0968 16.6805 18.4615 15.8062 18.4615 14.8946C18.4615 13.983 18.0968 13.1087 17.4477 12.4641C16.7985 11.8195 15.9181 11.4574 15 11.4574Z" fill="#FFE292"/>
</svg>
