<svg width="80" height="80" viewBox="0 0 80 80" fill="none" xmlns="http://www.w3.org/2000/svg">
<path d="M40 0C17.9446 0 0 17.9446 0 40C0 62.0554 17.9446 80 40 80C62.0554 80 80 62.0554 80 40C80 17.9446 62.0554 0 40 0ZM29.7416 12.3077H50.2524C59.8678 12.3077 67.6923 20.1293 67.6923 29.7416V50.2524C67.6923 59.8678 59.8707 67.6923 50.2584 67.6923H29.7476C20.1322 67.6923 12.3077 59.8707 12.3077 50.2584V29.7476C12.3077 20.1322 20.1293 12.3077 29.7416 12.3077ZM29.7416 18.4615C23.5231 18.4615 18.4615 23.5261 18.4615 29.7476V50.2584C18.4615 56.4769 23.5261 61.5385 29.7476 61.5385H50.2584C56.4769 61.5385 61.5385 56.4739 61.5385 50.2524V29.7416C61.5385 23.5231 56.4739 18.4615 50.2524 18.4615H29.7416ZM54.363 23.5877C55.4953 23.5877 56.4123 24.5047 56.4123 25.637C56.4123 26.7693 55.4953 27.6923 54.363 27.6923C53.2307 27.6923 52.3077 26.7693 52.3077 25.637C52.3077 24.5047 53.2307 23.5877 54.363 23.5877ZM40 24.6154C48.4831 24.6154 55.3846 31.5169 55.3846 40C55.3846 48.4831 48.4831 55.3846 40 55.3846C31.5169 55.3846 24.6154 48.4831 24.6154 40C24.6154 31.5169 31.5169 24.6154 40 24.6154ZM40 30.7692C37.5518 30.7692 35.204 31.7418 33.4729 33.4729C31.7418 35.204 30.7692 37.5518 30.7692 40C30.7692 42.4482 31.7418 44.796 33.4729 46.5271C35.204 48.2582 37.5518 49.2308 40 49.2308C42.4482 49.2308 44.796 48.2582 46.5271 46.5271C48.2582 44.796 49.2308 42.4482 49.2308 40C49.2308 37.5518 48.2582 35.204 46.5271 33.4729C44.796 31.7418 42.4482 30.7692 40 30.7692Z" fill="#B2B2B2"/>
</svg>
