<svg width="80" height="80" viewBox="0 0 80 80" fill="none" xmlns="http://www.w3.org/2000/svg">
<path d="M7.27273 0C3.25455 0 0 3.25455 0 7.27273V72.7273C0 76.7455 3.25455 80 7.27273 80H72.7273C76.7455 80 80 76.7455 80 72.7273V7.27273C80 3.25455 76.7455 0 72.7273 0H7.27273ZM49.0909 25.4545H58.3878C59.3914 25.4545 60.206 26.2691 60.206 27.2727C60.206 28.2764 59.3914 29.0909 58.3878 29.0909H49.0909C48.0873 29.0909 47.2727 28.2764 47.2727 27.2727C47.2727 26.2691 48.0873 25.4545 49.0909 25.4545ZM17.8906 26.8537H28.0185C33.9967 26.8537 37.5639 29.7784 37.5639 34.5384C37.5639 37.8038 35.1486 40.6531 31.9886 41.1222V41.5057C36.0686 41.8039 39.0341 44.8785 39.0341 48.8494C39.0377 54.2494 34.9589 57.6705 28.3807 57.6705H17.8906C16.0434 57.6705 14.5455 56.1726 14.5455 54.3253V30.1989C14.5455 28.3516 16.0434 26.8537 17.8906 26.8537ZM20.9943 31.7827V39.6236H25.8381C29.3217 39.6272 31.2216 38.1937 31.2216 35.7173C31.2216 33.2628 29.4542 31.7827 26.3778 31.7827H20.9943ZM54.4105 33.6009C61.3523 33.6009 65.4474 38.0244 65.4474 45.4972V47.3935H49.2898V47.7131C49.3734 51.2149 51.426 53.3949 54.6733 53.3949C57.1278 53.3949 58.8126 52.5223 59.4744 50.9659H65.2628C64.3246 55.4095 60.263 58.1818 54.4957 58.1818C47.3212 58.1818 43.0966 53.6522 43.0966 46.0085C43.0966 38.3431 47.4069 33.6009 54.4105 33.6009ZM54.4389 38.3665C51.5553 38.3665 49.522 40.3688 49.3111 43.4233H59.3466C59.2157 40.3069 57.3407 38.3665 54.4389 38.3665ZM20.9943 43.9844V52.7415H26.7401C30.4564 52.7415 32.4645 51.1755 32.4645 48.2955C32.4645 45.4736 30.3909 43.9844 26.5909 43.9844H20.9943Z" fill="#B2B2B2"/>
</svg>
