<svg width="580" height="160" viewBox="0 0 580 160" fill="none" xmlns="http://www.w3.org/2000/svg">
<g clip-path="url(#clip0_506_219)">
<path d="M454.282 10C454.282 7.34784 455.934 4.8043 458.875 2.92893C461.815 1.05357 465.803 0 469.962 0L564.038 0C568.197 0 572.185 1.05357 575.125 2.92893C578.066 4.8043 579.718 7.34784 579.718 10V150C579.718 152.652 578.066 155.196 575.125 157.071C572.185 158.946 568.197 160 564.038 160H469.962C465.803 160 461.815 158.946 458.875 157.071C455.934 155.196 454.282 152.652 454.282 150V10ZM469.962 145C469.962 146.326 470.788 147.598 472.258 148.536C473.728 149.473 475.722 150 477.801 150C479.881 150 481.875 149.473 483.345 148.536C484.815 147.598 485.641 146.326 485.641 145C485.641 143.674 484.815 142.402 483.345 141.464C481.875 140.527 479.881 140 477.801 140C475.722 140 473.728 140.527 472.258 141.464C470.788 142.402 469.962 143.674 469.962 145ZM501.321 145C501.321 146.326 502.146 147.598 503.617 148.536C505.087 149.473 507.081 150 509.16 150C511.239 150 513.234 149.473 514.704 148.536C516.174 147.598 517 146.326 517 145C517 143.674 516.174 142.402 514.704 141.464C513.234 140.527 511.239 140 509.16 140C507.081 140 505.087 140.527 503.617 141.464C502.146 142.402 501.321 143.674 501.321 145ZM477.801 10C475.722 10 473.728 10.5268 472.258 11.4645C470.788 12.4021 469.962 13.6739 469.962 15C469.962 16.3261 470.788 17.5979 472.258 18.5355C473.728 19.4732 475.722 20 477.801 20H556.199C558.278 20 560.272 19.4732 561.742 18.5355C563.212 17.5979 564.038 16.3261 564.038 15C564.038 13.6739 563.212 12.4021 561.742 11.4645C560.272 10.5268 558.278 10 556.199 10H477.801ZM469.962 35C469.962 36.3261 470.788 37.5979 472.258 38.5355C473.728 39.4732 475.722 40 477.801 40H556.199C558.278 40 560.272 39.4732 561.742 38.5355C563.212 37.5979 564.038 36.3261 564.038 35C564.038 33.6739 563.212 32.4021 561.742 31.4645C560.272 30.5268 558.278 30 556.199 30H477.801C475.722 30 473.728 30.5268 472.258 31.4645C470.788 32.4021 469.962 33.6739 469.962 35ZM352.366 20C346.128 20 340.146 21.5804 335.735 24.3934C331.325 27.2064 328.847 31.0218 328.847 35V105C328.847 108.978 331.325 112.794 335.735 115.607C340.146 118.42 346.128 120 352.366 120H422.923V140H415.084C413.004 140 411.01 140.527 409.54 141.464C408.07 142.402 407.244 143.674 407.244 145C407.244 146.326 408.07 147.598 409.54 148.536C411.01 149.473 413.004 150 415.084 150H438.603V110H352.366C350.287 110 348.293 109.473 346.822 108.536C345.352 107.598 344.526 106.326 344.526 105V35C344.526 33.6739 345.352 32.4021 346.822 31.4645C348.293 30.5268 350.287 30 352.366 30H438.603V20H352.366Z" fill="#836825"/>
</g>
<path d="M20.544 137.376C19.584 136.992 18.592 136.576 17.568 136.128C16.608 135.68 15.68 135.008 14.784 134.112C13.952 133.28 13.216 132.096 12.576 130.56C11.936 128.704 11.488 126.88 11.232 125.088C11.04 123.296 10.976 121.216 11.04 118.848C11.04 115.52 11.264 112.64 11.712 110.208C12.224 107.712 12.992 105.184 14.016 102.624C14.144 102.432 14.368 101.888 14.688 100.992C15.072 100.032 15.488 99.008 15.936 97.92C16.448 96.832 16.832 96 17.088 95.424C17.6 94.336 18.368 92.896 19.392 91.104C20.48 89.248 21.632 87.456 22.848 85.728C24.704 82.976 26.24 80.8 27.456 79.2C28.672 77.6 29.824 76.256 30.912 75.168C32 74.08 33.216 73.056 34.56 72.096C35.968 71.072 37.76 69.824 39.936 68.352C41.344 67.328 42.88 66.784 44.544 66.72C46.272 66.656 47.872 67.04 49.344 67.872C50.816 68.64 51.904 69.792 52.608 71.328C53.312 72.672 53.664 74.304 53.664 76.224C53.664 78.08 53.376 80.064 52.8 82.176C52.224 84.224 51.424 86.176 50.4 88.032C49.376 89.888 48.192 91.424 46.848 92.64C46.016 93.408 45.248 93.696 44.544 93.504C43.904 93.312 43.136 92.8 42.24 91.968C41.664 90.88 41.344 90.24 41.28 90.048C41.28 89.856 41.408 89.728 41.664 89.664C42.048 89.216 42.56 88.448 43.2 87.36C43.84 86.272 44.48 85.12 45.12 83.904C45.76 82.624 46.208 81.6 46.464 80.832C46.976 78.144 47.328 76.256 47.52 75.168C47.712 74.016 47.52 73.152 46.944 72.576C46.688 72.32 46.304 72.224 45.792 72.288C45.344 72.352 44.576 72.672 43.488 73.248C42.016 73.888 40.096 75.328 37.728 77.568C35.36 79.744 33.184 82.176 31.2 84.864C28.64 88.256 26.496 91.264 24.768 93.888C23.04 96.512 21.728 99.2 20.832 101.952C20.704 102.208 20.48 102.688 20.16 103.392C19.904 104.096 19.776 104.448 19.776 104.448C19.84 104.704 19.744 105.344 19.488 106.368C19.232 107.328 18.944 108.16 18.624 108.864C17.92 111.808 17.504 114.88 17.376 118.08C17.248 121.216 17.408 124 17.856 126.432C18.368 128.864 19.104 130.56 20.064 131.52C20.896 132.096 22.016 132.288 23.424 132.096C24.896 131.904 26.56 131.456 28.416 130.752C30.272 130.048 32.16 129.28 34.08 128.448C35.616 127.808 37.024 127.104 38.304 126.336C39.584 125.568 40.544 124.896 41.184 124.32C41.696 123.936 42.336 123.552 43.104 123.168C43.936 122.72 44.64 122.496 45.216 122.496C46.112 122.176 46.624 122.048 46.752 122.112C46.88 122.176 46.944 122.464 46.944 122.976C46.944 123.872 46.432 124.864 45.408 125.952C44.448 127.04 43.2 128.032 41.664 128.928C41.152 129.44 40.48 129.984 39.648 130.56C38.816 131.136 37.952 131.584 37.056 131.904C35.712 132.928 34.048 133.92 32.064 134.88C30.08 135.84 28.064 136.576 26.016 137.088C24.032 137.6 22.208 137.696 20.544 137.376ZM55.911 136.896C55.335 136.64 54.663 136.128 53.895 135.36C52.551 134.464 51.527 133.44 50.823 132.288C50.119 131.2 49.703 129.632 49.575 127.584C49.575 127.264 49.863 126.752 50.439 126.048C51.015 125.28 51.751 124.672 52.647 124.224C53.543 123.776 54.471 123.904 55.431 124.608C54.983 125.952 54.695 127.072 54.567 127.968C54.503 128.864 54.759 129.6 55.335 130.176C55.911 130.688 57.031 131.136 58.695 131.52C59.783 131.776 60.807 131.872 61.767 131.808C62.791 131.744 64.007 131.584 65.415 131.328C66.887 131.2 68.167 131.072 69.255 130.944C70.407 130.816 71.207 130.528 71.655 130.08C73.447 129.376 75.079 128.48 76.551 127.392C78.087 126.304 79.111 125.216 79.623 124.128C80.391 123.104 80.807 122.304 80.871 121.728C80.935 121.152 80.967 120.16 80.967 118.752C80.903 117.408 80.807 116.384 80.679 115.68C80.615 114.912 80.391 114.08 80.007 113.184C79.623 112.224 78.951 110.784 77.991 108.864C77.991 108.48 77.511 107.744 76.551 106.656C75.591 105.568 74.663 104.512 73.767 103.488C73.319 102.464 72.743 101.312 72.039 100.032C71.399 98.752 70.631 97.824 69.735 97.248C69.479 96.864 69.223 96.288 68.967 95.52C68.711 94.752 68.487 94.336 68.295 94.272C68.295 94.272 68.199 94.112 68.007 93.792C67.879 93.472 67.719 93.088 67.527 92.64C66.631 90.72 66.535 88.384 67.239 85.632C67.943 82.88 69.351 80.288 71.463 77.856C71.975 77.024 72.743 76.064 73.767 74.976C74.855 73.824 75.879 72.832 76.839 72C77.863 71.168 78.503 70.752 78.759 70.752C78.759 70.752 78.951 70.688 79.335 70.56C79.783 70.368 80.327 70.048 80.967 69.6C81.735 69.408 82.535 69.12 83.367 68.736C84.263 68.352 85.127 68.16 85.959 68.16C87.111 67.776 87.975 67.52 88.551 67.392C89.127 67.2 89.703 67.136 90.279 67.2C90.855 67.2 91.751 67.264 92.967 67.392C94.631 67.84 95.943 68.48 96.903 69.312C97.863 70.08 98.535 71.104 98.919 72.384L99.591 76.512L95.559 79.488C94.791 79.744 93.927 79.872 92.967 79.872C92.007 79.872 91.175 79.84 90.471 79.776C89.831 79.648 89.511 79.584 89.511 79.584C89.127 79.584 88.967 79.392 89.031 79.008C89.095 78.624 89.351 78.432 89.799 78.432C89.991 78.304 90.247 78.016 90.567 77.568C90.951 77.12 91.463 76.608 92.103 76.032C92.807 74.816 92.967 74.08 92.583 73.824C92.263 73.504 90.983 73.472 88.743 73.728C86.567 73.792 84.423 74.368 82.311 75.456C80.263 76.48 78.535 78.016 77.127 80.064C75.463 81.472 74.279 82.912 73.575 84.384C72.871 85.856 72.519 87.136 72.519 88.224C72.647 88.672 72.839 89.312 73.095 90.144C73.351 90.912 73.703 91.744 74.151 92.64C76.839 96.416 78.791 99.072 80.007 100.608C81.223 102.144 81.831 103.072 81.831 103.392C81.831 103.648 81.831 103.808 81.831 103.872C81.895 103.872 82.151 104.288 82.599 105.12C83.111 105.952 83.591 106.848 84.039 107.808C84.487 108.704 84.711 109.28 84.711 109.536C84.711 109.536 84.775 109.728 84.903 110.112C85.095 110.432 85.319 110.912 85.575 111.552C85.831 111.744 86.055 112.48 86.247 113.76C86.439 115.04 86.599 116.384 86.727 117.792C86.919 119.2 87.015 120.288 87.015 121.056C87.015 121.824 86.823 122.656 86.439 123.552C86.055 124.384 85.575 125.216 84.999 126.048C84.423 126.88 83.783 127.68 83.079 128.448C82.375 129.216 81.287 130.176 79.815 131.328C78.343 132.416 76.775 133.44 75.111 134.4C73.511 135.424 72.007 136.096 70.599 136.416C69.639 136.8 68.391 137.088 66.855 137.28C65.383 137.536 63.847 137.696 62.247 137.76C60.711 137.824 59.335 137.76 58.119 137.568C56.967 137.44 56.231 137.216 55.911 136.896ZM99.5265 134.88C98.8225 134.24 98.3105 133.728 97.9905 133.344C97.7345 132.96 97.6385 132.48 97.7025 131.904C97.8305 131.264 98.0545 130.304 98.3745 129.024C98.5025 128.128 98.7265 126.944 99.0465 125.472C99.4305 123.936 99.8145 122.304 100.199 120.576C100.647 118.848 101.095 117.248 101.543 115.776C101.991 114.24 102.343 113.056 102.599 112.224C102.663 111.712 102.823 111.008 103.079 110.112C103.399 109.152 103.751 108.352 104.135 107.712L105.191 104.448C105.383 103.808 105.703 102.848 106.151 101.568C106.663 100.288 107.143 99.104 107.591 98.016C108.039 96.864 108.263 96.288 108.263 96.288C108.903 95.008 109.639 93.312 110.471 91.2C111.367 89.024 112.263 86.784 113.159 84.48C114.119 82.112 114.983 80 115.751 78.144C116.519 76.224 117.095 74.912 117.479 74.208C117.607 73.632 117.511 73.28 117.191 73.152C116.935 73.024 115.879 72.896 114.023 72.768C112.999 72.832 111.847 73.024 110.567 73.344C109.351 73.664 108.231 73.984 107.207 74.304C106.631 74.432 106.311 74.304 106.247 73.92C106.183 73.472 106.279 72.928 106.535 72.288C106.791 71.648 107.143 71.04 107.591 70.464C108.039 69.888 108.551 69.504 109.127 69.312C110.023 68.992 111.015 68.736 112.103 68.544C113.191 68.288 114.279 68.128 115.367 68.064C116.455 67.936 117.383 67.872 118.151 67.872C122.631 67.744 126.663 68.096 130.247 68.928C133.831 69.76 137.479 71.328 141.191 73.632C142.151 74.272 143.111 75.104 144.071 76.128C145.095 77.152 146.023 78.176 146.855 79.2C147.687 80.224 148.263 81.024 148.583 81.6C148.711 81.856 148.999 82.4 149.447 83.232C149.959 84.064 150.375 85.024 150.695 86.112C151.399 87.648 151.783 89.44 151.847 91.488C151.975 93.536 151.879 95.616 151.559 97.728C151.303 99.84 150.887 101.824 150.311 103.68C149.351 106.56 147.879 109.568 145.895 112.704C143.975 115.776 141.799 118.592 139.367 121.152C136.935 123.648 134.535 125.536 132.167 126.816C131.271 127.264 130.407 127.68 129.575 128.064C128.743 128.448 127.975 128.736 127.271 128.928C127.079 129.184 126.407 129.6 125.255 130.176C124.167 130.752 122.855 131.36 121.319 132C119.847 132.64 118.439 133.248 117.095 133.824C115.751 134.464 114.727 134.944 114.023 135.264C113.319 135.2 112.711 135.264 112.199 135.456C111.751 135.712 111.431 135.936 111.239 136.128C110.343 136.384 109.383 136.576 108.359 136.704C107.399 136.832 106.183 136.864 104.711 136.8L100.583 136.992L99.5265 134.88ZM105.287 131.232C106.183 131.296 107.367 131.136 108.839 130.752C110.311 130.368 111.591 129.952 112.679 129.504C113.383 129.248 113.927 129.12 114.311 129.12C114.759 129.12 114.983 129.12 114.983 129.12C115.239 129.12 116.007 128.832 117.286 128.256C118.567 127.616 120.071 126.848 121.799 125.952C123.527 125.056 125.191 124.224 126.791 123.456C128.391 122.624 129.607 122.016 130.439 121.632C131.143 120.864 132.103 119.936 133.319 118.848C134.535 117.76 135.399 116.896 135.911 116.256C136.743 115.808 137.415 115.168 137.927 114.336C138.503 113.504 138.983 113.024 139.367 112.896C139.687 112.896 140.135 112.288 140.711 111.072C141.351 109.856 142.087 108.64 142.919 107.424C143.879 105.76 144.551 104.544 144.935 103.776C145.383 102.944 145.671 102.112 145.799 101.28C145.991 100.384 146.183 99.104 146.375 97.44C146.631 94.816 146.695 92.704 146.567 91.104C146.439 89.44 146.023 87.904 145.319 86.496C144.615 85.088 143.495 83.488 141.958 81.696C140.615 79.904 139.591 78.72 138.887 78.144C138.247 77.568 137.479 77.056 136.583 76.608C135.751 76.48 134.919 76.256 134.087 75.936C133.255 75.552 132.775 75.328 132.647 75.264C132.391 74.816 131.655 74.432 130.439 74.112C129.287 73.792 128.071 73.536 126.791 73.344C125.575 73.088 124.647 72.96 124.007 72.96C123.815 73.216 123.687 73.44 123.623 73.632C123.623 73.76 123.559 74.272 123.431 75.168C123.431 75.488 123.207 76.288 122.759 77.568C122.311 78.784 121.767 80.032 121.127 81.312C120.487 82.592 119.879 83.456 119.303 83.904C119.175 84.224 118.823 85.12 118.247 86.592C117.671 88 116.967 89.792 116.135 91.968C115.303 94.144 114.407 96.48 113.447 98.976C112.551 101.472 111.719 103.936 110.951 106.368C110.567 107.2 110.087 107.936 109.511 108.576C108.999 109.152 108.743 109.44 108.743 109.44C108.679 109.888 108.615 110.336 108.551 110.784C108.487 111.232 108.327 111.68 108.071 112.128C107.367 114.88 106.663 117.6 105.959 120.288C105.255 122.912 104.615 125.408 104.039 127.776L102.887 131.04L105.287 131.232ZM154.835 128.544C154.579 128.032 154.259 127.648 153.875 127.392C153.491 127.072 153.299 126.784 153.299 126.528C153.299 126.272 153.267 126.016 153.203 125.76C153.203 125.44 153.075 125.152 152.819 124.896C152.499 124.512 152.531 123.648 152.915 122.304C153.299 120.896 153.939 119.2 154.835 117.216C155.731 115.168 156.787 113.024 158.003 110.784C158.515 110.272 159.027 109.6 159.539 108.768C160.051 107.936 160.435 107.392 160.691 107.136C160.691 106.88 160.787 106.656 160.979 106.464C161.171 106.208 161.395 106.08 161.651 106.08V105.504C161.651 105.184 161.939 104.64 162.515 103.872C163.155 103.104 163.923 102.272 164.819 101.376C165.715 100.416 166.643 99.52 167.603 98.688C168.563 97.792 169.363 97.152 170.003 96.768C171.347 95.872 172.723 95.328 174.131 95.136C175.603 94.944 176.851 95.264 177.875 96.096C178.067 96.288 178.387 96.608 178.835 97.056C179.283 97.504 179.795 98.016 180.371 98.592C181.011 99.104 181.651 99.648 182.291 100.224L185.843 103.392L184.115 108.192C183.283 110.752 183.059 112.992 183.443 114.912C183.891 116.832 184.531 118.496 185.363 119.904C185.683 120.608 186.323 121.28 187.283 121.92C188.307 122.56 189.267 122.944 190.163 123.072C190.675 123.136 191.155 123.328 191.603 123.648C192.051 123.968 192.275 124.48 192.275 125.184C192.275 125.824 192.147 126.336 191.891 126.72C191.635 127.104 191.187 127.36 190.547 127.488C188.435 127.744 186.451 127.232 184.595 125.952C182.803 124.672 181.139 122.56 179.603 119.616C179.347 119.232 178.995 118.528 178.547 117.504C178.163 116.416 177.939 115.712 177.875 115.392C177.619 115.712 177.139 116.32 176.435 117.216C175.731 118.048 175.187 118.656 174.803 119.04C170.259 123.648 166.323 126.752 162.995 128.352C159.731 129.888 157.011 129.952 154.835 128.544ZM158.291 123.168C158.291 123.616 158.963 123.616 160.307 123.168C161.715 122.656 163.219 121.76 164.819 120.48C166.995 118.624 169.171 116.576 171.347 114.336C173.587 112.096 175.379 110.016 176.723 108.096L178.835 104.64C178.195 103.168 177.491 102.176 176.723 101.664C176.019 101.088 175.411 100.8 174.899 100.8C174.067 100.8 172.819 101.568 171.155 103.104C169.555 104.64 167.827 106.688 165.971 109.248C164.115 111.808 162.355 114.624 160.691 117.696C160.051 118.976 159.475 120.224 158.963 121.44C158.515 122.592 158.291 123.168 158.291 123.168ZM202.162 126.144C201.714 125.76 201.138 124.608 200.434 122.688C199.794 120.768 199.154 118.528 198.514 115.968C197.938 113.344 197.458 110.944 197.074 108.768C196.818 107.488 196.53 106.4 196.21 105.504C195.954 104.608 195.73 103.872 195.538 103.296C195.218 102.144 195.122 101.184 195.25 100.416C195.378 99.648 195.826 99.04 196.594 98.592C196.914 98.4 197.298 98.272 197.746 98.208C198.258 98.08 198.642 98.048 198.898 98.112C199.666 98.368 200.37 99.552 201.01 101.664C201.65 103.712 202.226 106.432 202.738 109.824C202.994 111.808 203.314 113.504 203.698 114.912C204.082 116.32 204.274 117.152 204.274 117.408C204.53 117.92 204.818 118.432 205.138 118.944C205.522 119.392 205.97 119.36 206.482 118.848C206.738 118.592 207.25 118.016 208.018 117.12C208.85 116.224 209.65 115.264 210.418 114.24C211.762 112.448 212.818 110.976 213.586 109.824C214.418 108.672 215.346 107.456 216.37 106.176C216.818 105.536 217.33 104.832 217.906 104.064C218.482 103.296 219.058 102.592 219.634 101.952C220.274 101.248 220.85 100.832 221.362 100.704C222.898 100.448 223.73 100.768 223.858 101.664C223.986 102.56 223.41 103.904 222.13 105.696C221.618 106.464 221.202 107.2 220.882 107.904C220.626 108.544 220.37 108.992 220.114 109.248C219.602 110.272 218.802 111.584 217.714 113.184C216.626 114.72 215.57 116.16 214.546 117.504C213.522 118.784 212.818 119.616 212.434 120C212.178 120.256 211.602 120.736 210.706 121.44C209.874 122.144 209.074 123.04 208.306 124.128C206.77 125.6 205.554 126.496 204.658 126.816C203.762 127.136 202.93 126.912 202.162 126.144ZM230.775 129.024C229.815 128.896 228.983 128.224 228.279 127.008C227.639 125.728 227.255 124.576 227.127 123.552C227.191 123.04 227.255 122.304 227.319 121.344C227.447 120.384 227.575 119.392 227.703 118.368C227.959 117.152 228.311 115.68 228.759 113.952C229.207 112.16 229.655 110.368 230.103 108.576C230.615 106.784 231.063 105.248 231.447 103.968C231.831 102.688 232.087 101.92 232.215 101.664C232.535 101.152 233.047 101.024 233.751 101.28C234.455 101.536 235.031 101.92 235.479 102.432C235.863 102.944 236.087 103.552 236.151 104.256C236.279 104.96 236.183 105.984 235.863 107.328C235.607 108.672 235.095 110.656 234.327 113.28C233.623 115.84 233.079 117.92 232.695 119.52C232.375 121.056 232.247 122.688 232.311 124.416C232.055 126.592 231.863 127.936 231.735 128.448C231.607 128.896 231.287 129.088 230.775 129.024ZM241.815 90.72C241.559 90.912 241.303 91.008 241.047 91.008C240.855 90.944 240.503 90.752 239.991 90.432C239.543 90.368 238.967 90.08 238.263 89.568C237.623 88.992 237.047 88.416 236.535 87.84C236.087 87.2 235.863 86.816 235.863 86.688C235.799 86.048 235.831 85.248 235.959 84.288C236.151 83.264 236.503 82.368 237.015 81.6C237.527 80.768 238.263 80.32 239.223 80.256C239.479 80.256 239.703 80.288 239.895 80.352C240.087 80.416 240.663 80.64 241.623 81.024C242.135 81.984 242.647 83.072 243.159 84.288C243.671 85.44 243.895 86.592 243.831 87.744C243.767 88.832 243.095 89.824 241.815 90.72ZM268.457 131.04C268.201 131.04 267.817 131.008 267.305 130.944C266.857 130.816 266.473 130.528 266.153 130.08C265.193 128.928 264.585 127.968 264.329 127.2C264.073 126.432 264.041 125.312 264.233 123.84C264.361 122.88 264.425 122.048 264.425 121.344C264.489 120.576 264.553 119.936 264.617 119.424C264.361 119.168 263.881 119.36 263.177 120C262.537 120.576 261.641 121.312 260.489 122.208C258.313 124.704 256.361 126.624 254.633 127.968C252.969 129.248 251.465 130.112 250.121 130.56C248.777 130.944 247.497 131.072 246.281 130.944C245.193 130.816 244.329 130.368 243.689 129.6C243.049 128.768 242.633 127.712 242.441 126.432C242.313 125.152 242.313 123.776 242.441 122.304C242.697 120.192 243.145 118.176 243.785 116.256C244.489 114.336 245.609 112.192 247.145 109.824C247.849 108.544 248.777 107.296 249.929 106.08C251.145 104.8 252.457 103.68 253.865 102.72C255.337 101.696 256.745 100.96 258.089 100.512C259.561 99.936 261.065 99.616 262.601 99.552C264.137 99.424 265.513 99.552 266.729 99.936C267.497 100.32 268.105 100.512 268.553 100.512C269.065 100.512 269.449 100.192 269.705 99.552C270.025 99.04 270.345 98.272 270.665 97.248C270.985 96.16 271.369 95.232 271.817 94.464L273.929 88.224C274.633 86.496 275.401 84.672 276.233 82.752C277.065 80.832 278.057 78.496 279.209 75.744C280.297 73.696 281.193 72.512 281.897 72.192C282.601 71.808 283.401 72.064 284.297 72.96C285.001 73.792 285.257 74.752 285.065 75.84C284.873 76.864 284.297 78.528 283.337 80.832C282.889 81.536 282.505 82.208 282.185 82.848C281.865 83.424 281.417 84.352 280.841 85.632C280.009 87.616 279.241 89.408 278.537 91.008C277.833 92.544 277.097 94.304 276.329 96.288C276.073 97.312 275.721 98.496 275.273 99.84C274.889 101.184 274.569 102.4 274.313 103.488C274.121 104.512 273.897 105.472 273.641 106.368C273.449 107.2 273.225 107.616 272.969 107.616C272.457 108.192 271.977 109.216 271.529 110.688C271.081 112.096 270.697 113.568 270.377 115.104C270.121 116.64 269.897 117.92 269.705 118.944C269.577 119.712 269.481 120.704 269.417 121.92C269.353 123.136 269.321 124.32 269.321 125.472C269.321 126.56 269.321 127.328 269.321 127.776C269.321 129.184 269.289 130.08 269.225 130.464C269.161 130.848 268.905 131.04 268.457 131.04ZM248.009 124.992C249.353 124.992 250.761 124.416 252.233 123.264C253.769 122.112 255.305 120.832 256.841 119.424C257.801 118.528 258.825 117.344 259.913 115.872C261.065 114.4 262.153 112.928 263.177 111.456C264.265 109.984 265.129 108.704 265.769 107.616C266.409 106.464 266.729 105.76 266.729 105.504C266.729 105.184 266.441 104.96 265.865 104.832C265.289 104.704 264.617 104.64 263.849 104.64C263.145 104.576 262.569 104.608 262.121 104.736C260.713 105.056 259.305 105.696 257.897 106.656C256.553 107.616 255.081 109.056 253.481 110.976C251.817 113.024 250.441 115.136 249.353 117.312C248.329 119.488 247.689 121.312 247.433 122.784C247.177 124.256 247.369 124.992 248.009 124.992ZM316.819 141.12C315.603 141.312 314.483 141.408 313.459 141.408C312.435 141.472 310.931 141.248 308.947 140.736C307.923 140.416 307.187 140.032 306.739 139.584C306.355 139.136 305.683 138.304 304.723 137.088C304.019 136.064 303.507 135.104 303.187 134.208C302.931 133.376 302.899 132.704 303.091 132.192C303.283 131.744 303.699 131.616 304.339 131.808C304.531 131.872 304.819 132.064 305.203 132.384C305.651 132.768 306.067 133.216 306.451 133.728C307.347 134.688 308.435 135.328 309.715 135.648C310.995 135.968 312.691 136 314.803 135.744C315.699 135.552 316.787 135.264 318.067 134.88C319.347 134.56 320.595 134.144 321.811 133.632C323.027 133.12 323.987 132.608 324.691 132.096C328.083 129.792 330.803 127.968 332.851 126.624C334.899 125.28 335.923 124.608 335.923 124.608C336.051 124.352 336.275 124.16 336.595 124.032C336.979 123.84 337.427 123.648 337.939 123.456C338.323 123.072 338.931 122.464 339.763 121.632C340.659 120.8 341.491 119.968 342.259 119.136C343.091 118.304 343.603 117.824 343.795 117.696C343.923 117.12 344.051 116.672 344.179 116.352C344.307 115.968 344.371 115.584 344.371 115.2C344.883 114.688 345.555 113.632 346.387 112.032C347.283 110.368 348.179 108.544 349.075 106.56C349.971 104.512 350.611 102.656 350.995 100.992C351.891 96.512 352.115 92.736 351.667 89.664C351.219 86.592 350.291 83.968 348.883 81.792C347.539 79.552 345.843 77.568 343.795 75.84C343.091 75.264 342.099 74.656 340.819 74.016C339.603 73.312 338.323 72.704 336.979 72.192C335.635 71.68 334.451 71.264 333.427 70.944C332.467 70.624 331.891 70.496 331.699 70.56C331.443 70.624 330.899 71.648 330.067 73.632C329.299 75.552 328.371 78.016 327.283 81.024C326.195 84.032 325.011 87.232 323.731 90.624C322.515 94.016 321.363 97.216 320.275 100.224C319.891 101.44 319.475 102.72 319.027 104.064C318.579 105.408 318.195 106.592 317.875 107.616C317.555 108.576 317.395 109.216 317.395 109.536C316.691 110.624 316.115 112.064 315.667 113.856C315.283 115.648 314.835 118.624 314.323 122.784C313.747 124.96 313.331 126.624 313.075 127.776C312.819 128.864 312.563 129.376 312.307 129.312C312.307 129.312 312.275 129.344 312.211 129.408C312.211 129.408 312.115 129.504 311.923 129.696C311.923 130.08 311.667 130.272 311.155 130.272C310.643 130.272 310.035 130.144 309.331 129.888C308.691 129.568 308.179 129.216 307.795 128.832C307.603 128.128 307.475 127.456 307.411 126.816C307.411 126.176 307.667 124.928 308.179 123.072C308.499 121.856 308.883 120.384 309.331 118.656C309.843 116.864 310.387 115.04 310.963 113.184C311.539 111.264 312.083 109.504 312.595 107.904C313.107 106.304 313.491 105.088 313.747 104.256C314.195 103.168 314.835 101.12 315.667 98.112C316.179 96.448 316.691 94.784 317.203 93.12C317.779 91.456 318.323 89.984 318.835 88.704C319.347 87.36 319.699 86.496 319.891 86.112C320.211 85.28 320.691 83.872 321.331 81.888C321.971 79.904 322.803 77.696 323.827 75.264L324.499 72.096L323.443 71.616C322.675 71.872 322.067 71.968 321.619 71.904C321.235 71.776 320.979 71.68 320.851 71.616C320.467 71.744 319.923 71.648 319.219 71.328C318.515 71.008 317.875 70.592 317.299 70.08C316.787 69.568 316.467 69.12 316.339 68.736C316.211 68.48 316.115 68.16 316.051 67.776C316.051 67.328 316.051 67.104 316.051 67.104C316.115 66.72 316.595 66.368 317.491 66.048C318.387 65.664 319.539 65.344 320.947 65.088C322.419 64.832 323.987 64.672 325.651 64.608C327.379 64.48 329.043 64.48 330.643 64.608C332.307 64.736 333.875 65.088 335.347 65.664C336.819 66.24 338.419 66.848 340.147 67.488C342.195 68.256 344.339 69.6 346.579 71.52C348.883 73.376 350.963 75.584 352.819 78.144C354.739 80.704 356.019 83.392 356.659 86.208C356.851 86.976 357.043 88.064 357.235 89.472C357.427 90.88 357.523 92.256 357.523 93.6C357.587 94.88 357.459 95.712 357.139 96.096C357.011 96.352 356.915 96.672 356.851 97.056C356.851 97.376 356.979 97.6 357.235 97.728C357.171 97.92 356.947 98.656 356.563 99.936C356.179 101.152 355.827 102.208 355.507 103.104C355.379 104.768 354.995 106.496 354.355 108.288C353.715 110.08 353.011 111.776 352.243 113.376C351.475 114.912 350.771 116.224 350.131 117.312C349.875 117.312 349.619 117.376 349.363 117.504C349.171 117.568 349.203 117.632 349.459 117.696C349.459 118.016 349.107 118.624 348.403 119.52C348.147 119.712 347.731 120.192 347.155 120.96C346.643 121.664 346.227 122.144 345.907 122.4C345.843 122.848 345.651 123.232 345.331 123.552C345.011 123.808 344.723 123.936 344.467 123.936C344.467 123.936 344.403 123.936 344.275 123.936C344.211 123.936 344.179 124.064 344.179 124.32C343.667 125.088 342.867 126.016 341.779 127.104C340.691 128.128 339.443 129.216 338.035 130.368C336.691 131.456 335.283 132.48 333.811 133.44C332.403 134.4 331.059 135.136 329.779 135.648C329.139 136.096 328.467 136.448 327.763 136.704C327.059 137.024 326.387 137.344 325.747 137.664C325.427 137.92 324.723 138.272 323.635 138.72C322.547 139.232 321.363 139.712 320.083 140.16C318.867 140.608 317.779 140.928 316.819 141.12ZM367.039 129.696C364.543 128.672 362.911 127.264 362.143 125.472C361.439 123.616 361.311 120.768 361.759 116.928C361.887 114.944 361.951 113.632 361.951 112.992C361.951 112.352 361.599 111.712 360.895 111.072C360.703 110.816 360.351 110.464 359.839 110.016C359.391 109.568 359.199 109.184 359.263 108.864C359.199 108.416 359.231 107.936 359.359 107.424C359.487 106.848 359.679 106.56 359.935 106.56C360.191 106.56 360.447 106.496 360.703 106.368C361.023 106.24 361.311 106.24 361.567 106.368C361.823 106.368 362.111 106.4 362.431 106.464C362.751 106.528 362.911 106.688 362.911 106.944C363.167 107.392 363.583 107.456 364.159 107.136C364.735 106.752 365.343 105.92 365.983 104.64C366.623 103.616 367.455 102.592 368.479 101.568C369.567 100.544 370.623 99.616 371.647 98.784C372.735 97.888 373.631 97.248 374.335 96.864C374.655 96.736 375.135 96.576 375.775 96.384C376.415 96.192 377.087 96.032 377.791 95.904C378.559 95.776 379.199 95.744 379.711 95.808C380.863 95.872 381.823 96.192 382.591 96.768C383.423 97.344 384.191 98.016 384.895 98.784C385.727 99.36 386.239 100.128 386.431 101.088C386.687 102.048 386.751 103.072 386.623 104.16C386.495 105.248 386.207 106.24 385.759 107.136C385.567 107.776 385.023 108.544 384.127 109.44C383.231 110.336 382.207 111.2 381.055 112.032C379.903 112.864 378.847 113.472 377.887 113.856C377.055 114.048 375.967 114.208 374.623 114.336C373.343 114.464 372.127 114.528 370.975 114.528C369.887 114.464 369.151 114.336 368.767 114.144C368.319 113.888 367.967 114.24 367.711 115.2C367.455 116.16 367.263 117.536 367.135 119.328C367.007 120.736 367.007 121.76 367.135 122.4C367.263 123.04 367.391 123.488 367.519 123.744C367.967 124.192 368.575 124.768 369.343 125.472C370.175 126.112 371.327 126.208 372.799 125.76C374.015 125.44 375.199 124.608 376.351 123.264C377.567 121.92 378.687 120.832 379.711 120C379.967 119.552 380.383 119.296 380.959 119.232C381.599 119.104 382.271 119.136 382.975 119.328C383.679 119.776 383.967 120.32 383.839 120.96C383.775 121.536 383.455 122.432 382.879 123.648C382.687 124.096 382.239 124.672 381.535 125.376C380.895 126.016 380.159 126.688 379.327 127.392C378.559 128.032 377.855 128.544 377.215 128.928C375.295 129.952 373.503 130.496 371.839 130.56C370.175 130.56 368.575 130.272 367.039 129.696ZM372.703 110.208C374.111 109.888 375.231 109.664 376.063 109.536C376.895 109.408 377.695 109.056 378.463 108.48C379.231 107.84 380.191 106.656 381.343 104.928C381.599 104.224 381.663 103.52 381.535 102.816C381.471 102.112 381.311 101.632 381.055 101.376C380.479 100.736 379.775 100.544 378.943 100.8C378.175 100.992 377.439 101.344 376.735 101.856C376.287 102.048 375.615 102.528 374.719 103.296C373.887 104 373.055 104.832 372.223 105.792C371.391 106.688 370.719 107.52 370.207 108.288C369.695 109.056 369.567 109.504 369.823 109.632C369.695 109.888 370.047 110.048 370.879 110.112C371.775 110.176 372.383 110.208 372.703 110.208ZM400.37 130.656C397.17 130.656 394.834 129.504 393.362 127.2C392.914 126.56 392.69 125.92 392.69 125.28C392.754 124.576 392.946 124.096 393.266 123.84C393.65 123.584 394.098 123.808 394.609 124.512C395.506 125.024 396.786 125.28 398.45 125.28C399.282 125.28 400.146 125.216 401.042 125.088C401.938 124.896 402.834 124.64 403.73 124.32C404.69 123.872 405.33 123.488 405.65 123.168C405.97 122.784 405.906 122.464 405.458 122.208H405.554C403.89 121.76 402.194 121.056 400.466 120.096C398.802 119.072 397.362 117.984 396.146 116.832C394.93 115.616 394.226 114.528 394.034 113.568C393.522 111.584 393.65 109.568 394.418 107.52C395.186 105.408 396.274 103.552 397.682 101.952C398.194 101.632 398.834 101.248 399.602 100.8C400.37 100.288 400.978 100 401.426 99.936V100.032C402.642 98.752 404.114 97.728 405.842 96.96C407.634 96.192 409.522 95.488 411.506 94.848L412.946 94.656C413.714 94.528 414.354 94.464 414.866 94.464C414.802 94.464 414.93 94.528 415.25 94.656C415.57 94.72 415.858 94.784 416.114 94.848C416.498 95.04 416.818 95.136 417.074 95.136C417.906 95.264 418.674 95.648 419.378 96.288C420.082 96.928 420.626 97.696 421.01 98.592C421.458 99.424 421.618 100.224 421.49 100.992C421.362 102.208 420.978 103.296 420.338 104.256C419.762 105.216 419.058 105.76 418.226 105.888C418.354 105.824 418.258 105.728 417.938 105.6C417.682 105.408 417.394 105.216 417.074 105.024L416.786 105.216C416.786 105.216 416.754 105.152 416.69 105.024C416.69 104.832 416.626 104.608 416.498 104.352C416.306 103.968 416.21 103.552 416.21 103.104C416.21 102.592 416.242 102.048 416.306 101.472C416.434 100.768 416.434 100.352 416.306 100.224C416.242 100.096 415.826 100 415.058 99.936C414.162 99.744 412.85 99.904 411.122 100.416C409.458 100.928 408.05 101.632 406.898 102.528C405.49 103.424 404.306 104.288 403.346 105.12C402.386 105.888 401.618 106.656 401.042 107.424C400.466 108.128 399.954 108.96 399.506 109.92C399.186 110.368 398.898 110.816 398.642 111.264C398.45 111.648 398.354 112 398.354 112.32C398.354 113.024 398.866 113.76 399.89 114.528C400.978 115.232 402.578 116.064 404.69 117.024C406.354 117.728 407.762 118.496 408.914 119.328C410.066 120.16 410.866 121.12 411.314 122.208C411.442 122.464 411.474 122.784 411.41 123.168C411.41 123.488 411.346 123.712 411.218 123.84C411.346 123.968 411.41 124.064 411.41 124.128V124.032C411.922 124.8 411.922 125.6 411.41 126.432C410.962 127.264 410.162 128 409.01 128.64C407.922 129.216 406.578 129.664 404.978 129.984H405.074C404.242 130.24 403.41 130.432 402.578 130.56C401.81 130.624 401.074 130.656 400.37 130.656ZM425.312 128.928C424.8 128.416 424.416 127.776 424.16 127.008C423.968 126.24 423.904 125.472 423.968 124.704C424.032 123.936 424.192 123.296 424.448 122.784C424.448 122.272 424.512 121.888 424.64 121.632C424.832 121.312 424.896 121.024 424.832 120.768C424.768 120.512 424.832 120.064 425.024 119.424C425.216 118.784 425.408 118.176 425.6 117.6C426.048 116.576 426.528 115.36 427.04 113.952C427.552 112.48 428.032 111.04 428.48 109.632C428.928 108.224 429.312 107.008 429.632 105.984C429.952 104.96 430.144 104.32 430.208 104.064C430.208 103.296 430.72 102.88 431.744 102.816C432.512 102.56 433.088 102.56 433.472 102.816C433.856 103.008 434.368 103.616 435.008 104.64C435.52 105.152 435.712 105.92 435.584 106.944C435.456 107.968 435.04 109.248 434.336 110.784C434.08 111.296 433.76 112.032 433.376 112.992C433.056 113.952 432.832 114.816 432.704 115.584C432.448 116.096 432.128 116.832 431.744 117.792C431.424 118.688 431.136 119.552 430.88 120.384C430.752 120.704 430.624 121.184 430.496 121.824C430.368 122.4 430.208 123.04 430.016 123.744C429.824 124.384 429.568 124.96 429.248 125.472C428.672 128.096 428.128 129.632 427.616 130.08C427.168 130.528 426.4 130.144 425.312 128.928ZM434.624 89.952C434.304 89.632 434.016 89.184 433.76 88.608C433.504 87.968 433.344 87.392 433.28 86.88C433.216 86.304 433.28 86.016 433.472 86.016C433.984 85.952 434.592 85.408 435.296 84.384C436 83.36 436.288 82.464 436.16 81.696C436.16 81.44 436.256 81.216 436.448 81.024C436.64 80.768 436.864 80.608 437.12 80.544C437.888 80.032 438.624 79.968 439.328 80.352C440.096 80.672 440.8 81.344 441.44 82.368C442.016 83.584 442.176 84.608 441.92 85.44C441.664 86.208 440.96 87.296 439.808 88.704C438.848 89.984 437.952 90.688 437.12 90.816C436.352 90.944 435.52 90.656 434.624 89.952ZM452.243 150.336C450.451 151.04 448.563 150.912 446.579 149.952C444.659 149.056 442.995 147.616 441.587 145.632C441.331 145.248 441.011 144.64 440.627 143.808C440.307 143.04 439.987 142.24 439.667 141.408C439.411 140.576 439.251 139.84 439.187 139.2C439.123 138.56 439.187 138.176 439.379 138.048C439.571 137.856 439.891 137.792 440.339 137.856C440.787 137.92 441.203 138.08 441.587 138.336C442.035 138.592 442.323 138.912 442.451 139.296C442.643 139.744 442.931 140.32 443.315 141.024C443.763 141.728 444.243 142.368 444.755 142.944C445.267 143.52 445.651 143.84 445.907 143.904C447.123 144.48 448.019 144.736 448.595 144.672C449.171 144.608 449.683 144.416 450.131 144.096C451.219 143.264 452.115 142.176 452.819 140.832C453.523 139.488 454.323 137.408 455.219 134.592C455.923 132.224 456.627 129.728 457.331 127.104C458.099 124.416 458.771 122.336 459.347 120.864C459.539 120.096 459.763 119.456 460.019 118.944C460.339 118.368 460.627 117.952 460.883 117.696H461.459C460.051 118.592 458.803 119.616 457.715 120.768C456.627 121.92 455.251 122.848 453.587 123.552C453.203 124 452.243 124.288 450.707 124.416C449.235 124.48 447.795 124.288 446.387 123.84C445.491 123.328 444.819 122.944 444.371 122.688C443.987 122.432 443.667 122.08 443.411 121.632C443.219 121.184 442.931 120.48 442.547 119.52C442.099 118.56 442.035 116.992 442.355 114.816C442.675 112.64 443.251 110.464 444.083 108.288C444.851 106.688 445.97 104.96 447.443 103.104C448.915 101.248 450.483 99.584 452.147 98.112C453.811 96.576 455.315 95.616 456.659 95.232C457.171 94.976 457.715 94.816 458.291 94.752C458.931 94.624 459.827 94.72 460.979 95.04C462.067 95.168 462.899 95.424 463.475 95.808C464.051 96.128 464.979 96.832 466.259 97.92C467.091 98.752 467.763 99.584 468.275 100.416C468.851 101.248 469.299 102.112 469.619 103.008C470.067 103.968 470.227 104.864 470.099 105.696C470.035 106.464 469.683 107.264 469.043 108.096C468.467 108.928 467.859 109.76 467.219 110.592C466.579 111.424 466.099 112.576 465.779 114.048C465.459 115.968 464.947 118.144 464.243 120.576C463.539 122.944 462.931 125.152 462.419 127.2L460.883 133.152C459.283 138.592 457.747 142.624 456.275 145.248C454.867 147.936 453.523 149.632 452.243 150.336ZM448.787 119.616C450.067 119.552 451.283 119.296 452.435 118.848C453.587 118.4 454.707 117.664 455.795 116.64C456.883 115.552 457.971 114.176 459.059 112.512C460.147 110.976 460.915 109.376 461.363 107.712C461.811 105.984 461.971 104.32 461.843 102.72C461.779 101.696 461.619 101.024 461.363 100.704C461.107 100.384 460.563 100.288 459.731 100.416C458.515 100.608 457.171 101.28 455.699 102.432C454.227 103.52 452.851 104.896 451.571 106.56C450.611 107.84 449.811 109.376 449.171 111.168C448.531 113.088 448.147 114.912 448.019 116.64C447.891 118.368 448.147 119.36 448.787 119.616ZM506.048 130.848C505.408 130.848 504.736 130.496 504.032 129.792C503.392 129.088 502.816 128.224 502.304 127.2C501.856 126.112 501.632 125.088 501.632 124.128C501.632 123.168 501.856 121.376 502.304 118.752C502.816 116.128 503.424 113.472 504.128 110.784C504.64 109.12 504.8 108.16 504.608 107.904C504.416 107.648 503.552 108 502.016 108.96C501.12 109.408 500.32 109.888 499.616 110.4C498.912 110.848 498.304 111.36 497.792 111.936C497.472 112.192 496.992 112.608 496.352 113.184C495.712 113.76 495.04 114.304 494.336 114.816C493.504 115.456 492.448 116.352 491.168 117.504C489.888 118.656 488.608 119.808 487.328 120.96C486.112 122.112 485.184 123.008 484.544 123.648C484.416 123.904 484.224 124.128 483.968 124.32C483.712 124.512 483.424 124.64 483.104 124.704C482.784 124.704 482.432 124.64 482.048 124.512C481.344 124.32 480.672 123.904 480.032 123.264C479.456 122.624 479.168 121.888 479.168 121.056C479.168 120.416 479.424 119.328 479.936 117.792C480.448 116.192 481.12 114.272 481.952 112.032C482.848 109.792 483.872 107.424 485.024 104.928C485.216 104.608 485.376 104.224 485.504 103.776C485.632 103.264 485.728 102.72 485.792 102.144C485.92 101.568 485.984 101.024 485.984 100.512C485.984 100.192 486.016 99.872 486.08 99.552C486.208 99.168 486.336 98.816 486.464 98.496C486.656 98.112 486.816 97.856 486.944 97.728C487.2 97.216 487.648 97.088 488.288 97.344C488.928 97.536 489.472 97.984 489.92 98.688C490.88 99.584 491.359 100.704 491.359 102.048C491.424 103.392 491.104 105.056 490.4 107.04C490.144 107.488 489.92 107.936 489.728 108.384C489.6 108.768 489.472 109.12 489.344 109.44C489.216 109.696 489.12 109.92 489.056 110.112C488.992 110.24 488.96 110.304 488.96 110.304C489.216 110.304 489.792 110.016 490.688 109.44C491.583 108.864 492.64 108.224 493.856 107.52C494.816 106.816 495.648 106.176 496.352 105.6C497.12 104.96 497.76 104.48 498.272 104.16C498.784 103.776 499.104 103.584 499.232 103.584C499.488 103.584 499.808 103.488 500.192 103.296C500.576 103.104 500.896 102.88 501.152 102.624C501.408 102.368 501.6 102.24 501.728 102.24C501.92 102.176 502.016 102.144 502.016 102.144C502.016 102.144 502.144 102.144 502.4 102.144C502.656 102.08 502.912 101.92 503.168 101.664C503.68 101.28 504.352 101.184 505.184 101.376C506.016 101.504 506.784 101.824 507.488 102.336C508.192 102.848 508.544 103.424 508.544 104.064C508.544 104.32 508.608 104.544 508.736 104.736C508.928 104.864 509.024 104.928 509.024 104.928C509.536 104.928 509.856 105.728 509.984 107.328C510.176 108.928 510.016 110.464 509.504 111.936C509.504 112.896 509.312 114.048 508.928 115.392C508.608 116.736 508.32 118.016 508.064 119.232C507.552 120.832 507.2 122.24 507.008 123.456C506.816 124.672 506.784 125.696 506.912 126.528C507.04 127.36 507.264 128.032 507.584 128.544C507.84 128.992 507.84 129.504 507.584 130.08C507.328 130.592 506.816 130.848 506.048 130.848Z" fill="#FFE292"/>
<defs>
<clipPath id="clip0_506_219">
<rect width="250.871" height="160" fill="white" transform="translate(328.847)"/>
</clipPath>
</defs>
</svg>
