<svg width="160" height="163" viewBox="0 0 160 163" fill="none" xmlns="http://www.w3.org/2000/svg">
<g clip-path="url(#clip0_9_178)">
<path d="M0 81.1071C0 36.313 35.8173 0 80 0C124.183 0 160 36.313 160 81.1071C160 125.901 124.183 162.214 80 162.214C35.8173 162.214 0 125.901 0 81.1071Z" fill="#FF2BC2"/>
<path d="M7.99997 81.1068C7.99997 40.7921 40.2357 8.11035 80 8.11035C119.764 8.11035 152 40.7921 152 81.1068C152 121.421 119.764 154.103 80 154.103C40.2357 154.103 7.99997 121.421 7.99997 81.1068Z" fill="url(#paint0_radial_9_178)"/>
<path fill-rule="evenodd" clip-rule="evenodd" d="M82.3547 109.853L67.188 80.0338L81.488 52.1914C81.7587 51.6973 81.5963 51.3678 81.163 51.3678H72.442C71.907 51.3678 71.742 51.6355 71.477 52.0653L71.467 52.0815C70.5703 54.0342 69.6617 55.9946 68.7507 57.9601C66.305 63.2361 63.8437 68.5466 61.5547 73.8281H61.4463C59.0563 68.4169 56.5493 63.0949 54.033 57.7523C53.1273 55.8297 52.2203 53.9048 51.3173 51.9717C51.1547 51.4776 50.884 51.3678 50.3423 51.3678H41.0257C40.6467 51.3678 40.3217 51.752 40.6467 52.1914L55.0007 80.9672L40.159 109.908C39.8883 110.237 39.9423 110.677 40.484 110.677H49.4757C49.909 110.677 50.1797 110.512 50.4507 110.072C53.9173 102.824 57.4923 94.8061 60.7423 87.4473H60.8507C64.4797 95.2454 68.0003 102.769 71.467 110.018C71.738 110.567 72.0087 110.731 72.6047 110.731H82.0297C82.463 110.731 82.6253 110.292 82.3547 109.853ZM85.6587 88.9302C85.6587 76.1345 93.7837 66.1401 107.108 66.1401C108.246 66.1401 108.842 66.1401 109.925 66.2499V51.9717C109.925 51.6422 110.196 51.4225 110.467 51.4225H119.188C119.621 51.4225 119.729 51.5875 119.729 51.8619V102.055C119.729 103.538 119.729 105.405 120 107.437C120 107.821 120 107.876 119.675 108.041C115.125 110.237 110.358 111.226 105.808 111.226C94.0543 111.226 85.6587 103.867 85.6587 88.9302ZM109.925 74.8716C109.113 74.487 108.083 74.3225 106.783 74.3225C99.9587 74.3225 95.4087 79.6492 95.4087 88.4909C95.4087 98.5951 100.067 102.659 106.133 102.659C107.433 102.659 108.842 102.494 109.871 102.055V74.8716H109.925Z" fill="#FED7F0"/>
</g>
<defs>
<radialGradient id="paint0_radial_9_178" cx="0" cy="0" r="1" gradientUnits="userSpaceOnUse" gradientTransform="translate(65.41 56.7422) scale(93.8827 95.1819)">
<stop stop-color="#0E0E17" stop-opacity="0.85"/>
<stop offset="0.767" stop-color="#0E0E17"/>
</radialGradient>
<clipPath id="clip0_9_178">
<rect width="160" height="162.214" fill="white"/>
</clipPath>
</defs>
</svg>
