<svg width="160" height="161" viewBox="0 0 160 161" fill="none" xmlns="http://www.w3.org/2000/svg">
<g clip-path="url(#clip0_521_266)">
<path d="M11.3719 80C11.3719 107.166 27.159 130.642 50.0516 141.767L17.3138 52.0692C13.5057 60.6046 11.3719 70.0503 11.3719 80Z" fill="#464342"/>
<path d="M126.334 76.5367C126.334 68.0548 123.287 62.1808 120.674 57.6088C117.195 51.9556 113.934 47.1681 113.934 41.5148C113.934 35.206 118.719 29.3333 125.459 29.3333C125.763 29.3333 126.052 29.3712 126.348 29.3881C114.138 18.2017 97.8701 11.3718 80.0026 11.3718C56.0261 11.3718 34.9318 23.6735 22.6602 42.3062C24.2703 42.3545 25.7878 42.3885 27.0767 42.3885C34.2553 42.3885 45.3673 41.5174 45.3673 41.5174C49.0669 41.2993 49.5031 46.7332 45.8074 47.1707C45.8074 47.1707 42.0895 47.6082 37.9524 47.825L62.9448 122.164L77.9641 77.1191L67.2713 47.8224C63.5756 47.6056 60.0745 47.1681 60.0745 47.1681C56.3761 46.9513 56.8097 41.2967 60.508 41.5148C60.508 41.5148 71.842 42.3859 78.5857 42.3859C85.763 42.3859 96.8763 41.5148 96.8763 41.5148C100.579 41.2967 101.013 46.7306 97.3164 47.1681C97.3164 47.1681 93.5906 47.6056 89.4613 47.8224L114.263 121.598L121.109 98.7228C124.076 89.2301 126.334 82.412 126.334 76.5367Z" fill="#464342"/>
<path d="M81.2067 86.0033L60.6151 145.839C66.7633 147.646 73.2655 148.635 80.0026 148.635C87.9948 148.635 95.6592 147.253 102.793 144.744C102.609 144.451 102.442 144.138 102.305 143.799L81.2067 86.0033Z" fill="#464342"/>
<path d="M140.223 47.0728C140.518 49.2588 140.686 51.6056 140.686 54.1299C140.686 61.0943 139.385 68.9232 135.467 78.7123L114.503 139.323C134.907 127.425 148.631 105.32 148.631 80.0013C148.632 68.0692 145.584 56.8488 140.223 47.0728Z" fill="#464342"/>
<path d="M80.0026 0C35.8903 0 0 35.8877 0 80C0 124.118 35.8903 160.004 80.0026 160.004C124.114 160.004 160.009 124.118 160.009 80C160.008 35.8877 124.114 0 80.0026 0ZM80.0026 156.337C37.9132 156.337 3.6683 122.092 3.6683 80C3.6683 37.9105 37.9119 3.6683 80.0026 3.6683C122.091 3.6683 156.333 37.9105 156.333 80C156.333 122.092 122.091 156.337 80.0026 156.337Z" fill="#464342"/>
</g>
<defs>
<clipPath id="clip0_521_266">
<rect width="160" height="160.004" fill="white"/>
</clipPath>
</defs>
</svg>
