<svg width="160" height="160" viewBox="0 0 160 160" fill="none" xmlns="http://www.w3.org/2000/svg">
<path d="M0 0H160V160H0V0Z" fill="#F7DF1E"/>
<path d="M42.0701 133.708L54.3144 126.298C56.6766 130.486 58.8254 134.03 63.9797 134.03C68.9204 134.03 72.0353 132.097 72.0353 124.579V73.4556H87.0712V124.792C87.0712 140.365 77.9426 147.454 64.6242 147.454C52.596 147.454 45.614 141.224 42.0698 133.706" fill="black"/>
<path d="M95.2383 132.096L107.481 125.008C110.704 130.271 114.893 134.137 122.303 134.137C128.533 134.137 132.506 131.022 132.506 126.726C132.506 121.571 128.425 119.745 121.551 116.739L117.793 115.126C106.945 110.509 99.7485 104.709 99.7485 92.4654C99.7485 81.1882 108.34 72.5957 121.766 72.5957C131.325 72.5957 138.199 75.9255 143.139 84.6252L131.432 92.1429C128.854 87.525 126.062 85.6995 121.767 85.6995C117.363 85.6995 114.57 88.4918 114.57 92.1429C114.57 96.6539 117.363 98.4801 123.806 101.273L127.565 102.884C140.346 108.362 147.542 113.946 147.542 126.511C147.542 140.045 136.91 147.455 122.625 147.455C108.663 147.455 99.6413 140.796 95.2385 132.096" fill="black"/>
</svg>
