<svg width="123" height="124" viewBox="0 0 123 124" fill="none" xmlns="http://www.w3.org/2000/svg">
<g clip-path="url(#clip0_1001_257)">
<path d="M121.556 93.9894L24.9637 119.871L3.87399 41.1635L100.467 15.2815L121.556 93.9894ZM27.1734 116.044L117.729 91.7797L98.2569 19.1089L7.70132 43.3732L27.1734 116.044Z" fill="#FFE292"/>
<path d="M94.958 35.4371L99.7686 53.3905L23.5337 73.8176L18.7231 55.8642L94.958 35.4371ZM97.1314 31.6705L14.9568 53.6891L21.3591 77.5829L103.534 55.5643L97.1314 31.6705Z" fill="#FFE292"/>
<path d="M44.9065 79.1754L46.8903 86.5791L28.2886 91.5634L26.3048 84.1597L44.9065 79.1754ZM47.0806 75.4086L22.5385 81.9846L26.1143 95.3295L50.6564 88.7535L47.0806 75.4086Z" fill="#FFE292"/>
<path d="M51.6449 92.4429L27.1029 99.0189L27.9117 102.037L52.4537 95.4614L51.6449 92.4429Z" fill="#FFE292"/>
<path d="M53.6781 100.031L29.136 106.607L29.9448 109.625L54.4869 103.049L53.6781 100.031Z" fill="#FFE292"/>
<path d="M80.4612 84.7215L55.9199 91.2974L56.7287 94.3159L81.27 87.7401L80.4612 84.7215Z" fill="#FFE292"/>
<path d="M77.9032 47.8847L39.716 58.1169L40.5248 61.1355L78.7121 50.9032L77.9032 47.8847Z" fill="#FFE292"/>
<path d="M82.4944 92.3093L57.953 98.8851L58.7619 101.904L83.3032 95.3278L82.4944 92.3093Z" fill="#FFE292"/>
<path d="M109.277 77.0002L84.7362 83.576L85.545 86.5946L110.086 80.0187L109.277 77.0002Z" fill="#FFE292"/>
<path d="M111.311 84.5881L86.7693 91.1639L87.5781 94.1825L112.119 87.6066L111.311 84.5881Z" fill="#FFE292"/>
<path d="M73.7227 71.4542L75.7065 78.8579L57.1057 83.842L55.1219 76.4383L73.7227 71.4542ZM75.8977 67.6872L51.3556 74.2632L54.9313 87.6081L79.4726 81.0322L75.8977 67.6872Z" fill="#FFE292"/>
<path d="M102.54 63.7327L104.524 71.1364L85.922 76.1206L83.9382 68.717L102.54 63.7327ZM104.713 59.966L80.1719 66.5419L83.7476 79.8867L108.289 73.3109L104.713 59.966Z" fill="#FFE292"/>
<path d="M101.275 18.3001L4.68282 44.182L0.918213 30.1323L97.5108 4.25042L101.275 18.3001ZM6.89253 40.3547L97.4481 16.0904L95.3011 8.07775L4.74554 32.342L6.89253 40.3547Z" fill="#FFE292"/>
<path d="M11.7102 33.0665L8.15967 34.0178L8.96848 37.0363L12.519 36.085L11.7102 33.0665Z" fill="#FFE292"/>
<path d="M17.8604 31.4185L14.3076 32.3705L15.1165 35.389L18.6693 34.437L17.8604 31.4185Z" fill="#FFE292"/>
<path d="M24.0076 29.7714L20.4548 30.7234L21.2636 33.7419L24.8164 32.7899L24.0076 29.7714Z" fill="#FFE292"/>
<path d="M52.845 36.4033L21.4947 44.8036L22.3035 47.8221L53.6538 39.4218L52.845 36.4033Z" fill="#FFE292"/>
<path d="M17.0589 45.9921L13.1733 47.0332L13.9821 50.0517L17.8677 49.0106L17.0589 45.9921Z" fill="#FFE292"/>
</g>
<defs>
<clipPath id="clip0_1001_257">
<rect width="100" height="100" fill="white" transform="translate(0 26.7056) rotate(-15)"/>
</clipPath>
</defs>
</svg>
