<svg width="78" height="111" viewBox="0 0 78 111" fill="none" xmlns="http://www.w3.org/2000/svg">
<g clip-path="url(#clip0_1001_254)">
<path fill-rule="evenodd" clip-rule="evenodd" d="M26.5362 21.0042L66.5496 31.7258L54.3585 77.2237L14.345 66.5021L26.5362 21.0042ZM43.679 32.5736L47.3928 33.5687L45.3012 41.3744C45.0948 42.1448 44.7833 42.8448 44.3833 43.4706C43.974 44.1024 43.4671 44.6068 42.8584 44.9998C42.2426 45.3908 41.6565 45.6129 41.0794 45.6858C40.2789 45.783 39.374 45.6922 38.3624 45.4211C37.7772 45.2643 37.154 45.0468 36.4836 44.7745C35.8131 44.5022 35.2835 44.1665 34.8906 43.7832C34.4998 43.392 34.1725 42.9083 33.9223 42.3105C33.6627 41.7186 33.5374 41.1458 33.5319 40.5883C33.524 39.6931 33.6063 38.9232 33.7791 38.2786L35.8706 30.4729L39.5844 31.468L37.4444 39.4545C37.2527 40.1698 37.2838 40.7764 37.5376 41.2741C37.7915 41.7718 38.2425 42.1117 38.8855 42.284C39.5214 42.4543 40.0726 42.3914 40.5485 42.0892C41.015 41.793 41.3452 41.2833 41.5411 40.5522L43.679 32.5736ZM50.0011 34.2676L53.7365 35.2685L50.2275 48.3645L46.492 47.3636L50.0011 34.2676ZM35.0027 2.41226L68.5134 11.3914C70.9916 12.0555 72.9583 13.7619 74.11 15.9662C75.2618 18.1705 75.6141 20.9019 74.8916 23.5981L54.2586 100.602C53.5361 103.298 51.8653 105.487 49.7657 106.82C47.6661 108.154 45.1097 108.648 42.6315 107.984L9.12076 99.0048C6.6425 98.3408 4.67587 96.6343 3.5241 94.4301C2.37233 92.2258 2.02006 89.4943 2.74251 86.7981L23.3756 9.79446C24.098 7.09823 25.7688 4.90887 27.8684 3.5758C29.968 2.24274 32.5244 1.74821 35.0027 2.41226ZM12.1566 74.6694L29.0782 79.2035L27.469 85.2091L32.3171 86.5081L33.9284 80.4947L52.1794 85.385L50.5681 91.3985L54.159 92.3607L71.6095 27.2346L24.407 14.5867L6.95437 79.7206L10.5453 80.6828L12.1566 74.6694ZM23.109 94.429C22.5237 94.2722 22.157 93.6178 22.336 92.9497C22.5066 92.3129 23.1309 91.8905 23.7451 92.055L33.6509 94.7093C34.2361 94.8661 34.6029 95.5204 34.4239 96.1886C34.2532 96.8253 33.6289 97.2478 33.0148 97.0832L23.109 94.429ZM50.3974 11.9799C51.3583 12.2374 51.9061 13.2856 51.6259 14.3311C51.3458 15.3766 50.3473 16.0105 49.3864 15.753C48.4254 15.4955 47.8777 14.4473 48.1578 13.4018C48.4379 12.3563 49.4364 11.7224 50.3974 11.9799ZM53.5293 94.711L6.3267 82.0631L4.91129 87.3455C4.35944 89.4051 4.63546 91.4673 5.52947 93.1307C6.41505 94.8256 7.89485 96.1236 9.75896 96.623L43.2697 105.602C45.1627 106.109 47.0932 105.725 48.6787 104.693C50.293 103.668 51.5632 102.02 52.1066 99.9915L53.522 94.7091L53.5293 94.711ZM25.0452 12.2049L72.2477 24.8528L72.7385 23.0212C73.2903 20.9617 73.0143 18.8994 72.1203 17.236C71.2347 15.5412 69.7549 14.2432 67.8908 13.7437L34.3729 4.76261C32.4799 4.25538 30.5493 4.63958 28.9639 5.6723C27.3495 6.69728 26.0794 8.34526 25.5359 10.3733L25.0452 12.2049ZM34.9553 50.7091L38.5607 51.6752L36.5303 59.2529C36.3302 59.9997 36.0301 60.6859 35.6364 61.2882C35.2407 61.8983 34.7524 62.3909 34.1552 62.7701C33.558 63.1493 32.9885 63.3674 32.4279 63.4362C31.6512 63.5314 30.768 63.4464 29.7853 63.1831C29.2145 63.0301 28.6058 62.8165 27.957 62.55C27.3083 62.2835 26.791 61.9595 26.4126 61.5801C26.0269 61.1987 25.7119 60.7268 25.4698 60.1564C25.2205 59.5841 25.1003 59.0211 25.0885 58.4871C25.0815 57.6175 25.1647 56.8731 25.3311 56.2521L27.3616 48.6744L30.967 49.6404L28.8881 57.399C28.7027 58.0907 28.738 58.6815 28.9816 59.1596C29.2304 59.6475 29.669 59.9757 30.2904 60.1422C30.9045 60.3067 31.4485 60.2418 31.9037 59.9594C32.3516 59.675 32.6796 59.1732 32.8692 58.4657L34.9481 50.7072L34.9553 50.7091ZM40.1431 52.0991L44.1242 53.1659L45.1489 57.6361L48.2064 54.2597L52.1442 55.3148L46.8586 60.5038L49.0758 68.1245L45.008 67.0345L43.8129 62.3332L40.4055 65.8013L36.3811 64.7229L42.1883 59.1766L40.1431 52.0991Z" fill="#FFE292"/>
</g>
<defs>
<clipPath id="clip0_1001_254">
<rect width="53.3333" height="100" fill="white" transform="translate(26) rotate(15)"/>
</clipPath>
</defs>
</svg>
