<svg width="160" height="156" viewBox="0 0 160 156" fill="none" xmlns="http://www.w3.org/2000/svg">
<g clip-path="url(#clip0_1026_145)">
<path d="M28.3333 0H131.667C147.333 0 160 12.6667 160 28.3333V127.667C160 143.333 147.333 156 131.667 156H28.3333C12.6667 156 0 143.333 0 127.667V28.3333C0 12.6667 12.6667 0 28.3333 0Z" fill="#00005B"/>
<path d="M38 109.333V40.6668C38 40.2001 38.2 39.9334 38.6667 39.9334C39.8 39.9334 40.8667 39.9334 42.4 39.8668C44 39.8001 45.6667 39.8001 47.4667 39.7334C49.2667 39.6668 51.2 39.6668 53.2667 39.6001C55.3333 39.5334 57.3333 39.5334 59.3333 39.5334C64.8 39.5334 69.3333 40.2001 73.0667 41.6001C76.4 42.7334 79.4667 44.6001 82 47.0668C84.1333 49.2001 85.8 51.8001 86.8667 54.6668C87.8667 57.4668 88.4 60.3334 88.4 63.3334C88.4 69.0668 87.0667 73.8001 84.4 77.5335C81.7333 81.2668 78 84.0668 73.6667 85.6668C69.1333 87.3334 64.1333 87.9334 58.6667 87.9334C57.0667 87.9334 56 87.9334 55.3333 87.8668C54.6667 87.8001 53.7333 87.8001 52.4667 87.8001V109.2C52.5333 109.667 52.2 110.067 51.7333 110.133H51.4667H38.8C38.2667 110.133 38 109.867 38 109.267V109.333ZM52.5333 52.8668V75.2668C53.4667 75.3334 54.3333 75.4001 55.1333 75.4001H58.6667C61.2667 75.4001 63.8667 75.0001 66.3333 74.2001C68.4667 73.6001 70.3333 72.3334 71.8 70.6668C73.2 69.0001 73.8667 66.7334 73.8667 63.8001C73.9333 61.7334 73.4 59.6668 72.3333 57.8668C71.2 56.1335 69.6 54.8001 67.6667 54.0668C65.2 53.0668 62.5333 52.6668 59.8 52.7334C58.0667 52.7334 56.5333 52.7334 55.2667 52.8001C53.9333 52.7334 53 52.8001 52.5333 52.8668Z" fill="#9999FF"/>
<path d="M98 56.8H109.667C110.333 56.8 110.867 57.2667 111.067 57.8667C111.267 58.4 111.4 58.9334 111.467 59.5334C111.6 60.2 111.733 60.9334 111.8 61.6C111.867 62.3334 111.933 63.1334 111.933 64C113.933 61.6667 116.333 59.7334 119.067 58.2667C122.133 56.5334 125.667 55.6667 129.2 55.6667C129.667 55.6 130.067 55.9334 130.133 56.4V56.6667V69.6667C130.133 70.2 129.8 70.4 129.067 70.4C126.667 70.3334 124.2 70.5334 121.867 71.0667C119.933 71.4667 118.067 72.0667 116.267 72.8667C115 73.4667 113.8 74.2667 112.867 75.3334V109.333C112.867 110 112.6 110.267 112 110.267H98.8667C98.3333 110.333 97.8667 110 97.8 109.467V109.2V72.2667C97.8 70.6667 97.8 69 97.7333 67.2667C97.6667 65.5334 97.6667 63.8 97.6 62.0667C97.6 60.5334 97.4667 59.0667 97.3333 57.5334C97.2667 57.2 97.4667 56.8667 97.8 56.8C97.8 56.7334 97.9333 56.7334 98 56.8Z" fill="#9999FF"/>
</g>
<defs>
<clipPath id="clip0_1026_145">
<rect width="160" height="156" fill="white"/>
</clipPath>
</defs>
</svg>
