<svg width="160" height="160" viewBox="0 0 160 160" fill="none" xmlns="http://www.w3.org/2000/svg">
<path d="M0 80C0 35.8173 35.8173 0 80 0C124.183 0 160 35.8173 160 80C160 124.183 124.183 160 80 160C35.8173 160 0 124.183 0 80Z" fill="#F37021"/>
<path d="M7.99997 79.9996C7.99997 40.2353 40.2357 7.99963 80 7.99963C119.764 7.99963 152 40.2353 152 79.9996C152 119.764 119.764 152 80 152C40.2357 152 7.99997 119.764 7.99997 79.9996Z" fill="url(#paint0_radial_9_191)"/>
<path fill-rule="evenodd" clip-rule="evenodd" d="M99.159 50.2657C99.159 46.227 101.955 43.8453 105.579 43.8453C109.411 43.8453 112 46.434 112 50.2657C112 54.408 109.308 56.6863 105.476 56.6863C101.748 56.6863 99.159 54.408 99.159 50.2657ZM48.449 114.164L53.4197 95.346H53.4203H73.5103L78.688 114.267C78.791 114.681 79.1023 114.802 79.6193 114.802H89.975C90.493 114.802 90.5963 114.491 90.493 113.974L70.507 46.229C70.403 45.711 70.1957 45.6077 69.7817 45.6077H56.6307C56.3193 45.6077 56.112 45.8147 56.112 46.229C56.0087 49.3357 55.8013 50.316 55.4907 51.455L37.679 113.87C37.5763 114.595 37.679 114.802 38.2993 114.802H47.5177C48.1383 114.802 48.346 114.681 48.449 114.164ZM68.94 77.5327L68.9403 77.5333C69.718 80.497 70.4173 83.161 70.9213 85.1473H56.1127L56.2813 84.5137C58.843 74.88 62.044 62.8433 63.3617 55.6493H63.4653C64.5733 60.8967 67.001 70.1447 68.94 77.5323V77.5327ZM100.587 63.8083C100.069 63.8083 99.862 64.0153 99.862 64.5333V113.974C99.862 114.491 100.069 114.802 100.69 114.802H110.434C111.055 114.802 111.159 114.595 111.159 114.077V64.5333C111.159 64.0153 110.952 63.8083 110.434 63.8083H100.587Z" fill="#FF7F18"/>
<defs>
<radialGradient id="paint0_radial_9_191" cx="0" cy="0" r="1" gradientUnits="userSpaceOnUse" gradientTransform="translate(65.41 55.9676) scale(93.8827 93.8827)">
<stop stop-color="#1C0A00" stop-opacity="0.85"/>
<stop offset="0.767" stop-color="#1C0A00"/>
</radialGradient>
</defs>
</svg>
