<svg width="160" height="160" viewBox="0 0 160 160" fill="none" xmlns="http://www.w3.org/2000/svg">
<g clip-path="url(#clip0_521_232)">
<mask id="mask0_521_232" style="mask-type:luminance" maskUnits="userSpaceOnUse" x="2" y="4" width="156" height="152">
<path d="M2.24973 80C2.24973 121.879 37.0604 155.829 79.9999 155.829C122.939 155.829 157.75 121.879 157.75 80C157.75 38.1218 122.939 4.17106 79.9999 4.17106C37.0604 4.17106 2.24973 38.1218 2.24973 80Z" fill="white"/>
</mask>
<g mask="url(#mask0_521_232)">
<path d="M2.24973 80C2.24973 121.879 37.0604 155.829 79.9999 155.829C122.939 155.829 157.75 121.879 157.75 80C157.75 38.1218 122.939 4.17106 79.9999 4.17106C37.0604 4.17106 2.24973 38.1218 2.24973 80Z" fill="url(#paint0_radial_521_232)"/>
</g>
<mask id="mask1_521_232" style="mask-type:luminance" maskUnits="userSpaceOnUse" x="-1" y="-5" width="162" height="170">
<path d="M-0.989868 -4.46356H160.99V164.464H-0.989868V-4.46356Z" fill="white"/>
</mask>
<g mask="url(#mask1_521_232)">
<path d="M79.9999 150.199C121.262 150.199 154.713 118.77 154.713 79.9997C154.713 41.2305 121.262 9.80064 79.9999 9.80064C38.7376 9.80064 5.28683 41.2305 5.28683 79.9997C5.28683 118.77 38.7376 150.199 79.9999 150.199Z" fill="#777BB3"/>
</g>
<mask id="mask2_521_232" style="mask-type:luminance" maskUnits="userSpaceOnUse" x="-1" y="-5" width="162" height="170">
<path d="M-0.989868 -4.46356H160.99V164.464H-0.989868V-4.46356Z" fill="white"/>
</mask>
<g mask="url(#mask2_521_232)">
<path d="M44.4922 88.7036C47.885 88.7036 50.4179 87.5435 52.0205 85.2568C53.606 82.9935 54.7011 79.0722 55.275 73.6024C55.8102 68.4897 55.6063 64.9198 54.6693 62.9933C53.7112 61.0256 51.6398 60.0277 48.5127 60.0277H43.0906L40.0847 88.7036H44.4922ZM26.7579 124.027C26.5062 124.027 26.2672 123.819 26.1072 123.458C25.9469 123.097 25.8819 122.623 25.93 122.165L33.8963 46.1731C33.9733 45.4385 34.3206 44.9077 34.7245 44.9077H51.8937C57.2897 44.9077 61.306 47.6241 63.8304 52.9823C66.3684 58.3687 67.1521 65.8979 66.1597 75.3605C65.7559 79.2155 65.0613 82.7959 64.0953 86.0013C63.1282 89.2104 61.8501 92.1797 60.2958 94.8283C58.4353 98.0566 56.3296 100.398 54.0428 101.775C51.7922 103.134 48.9019 103.824 45.4522 103.824H38.5L36.5147 122.761C36.4376 123.496 36.0906 124.027 35.6868 124.027H26.7579Z" fill="black"/>
<path d="M43.7861 61.5916H48.5127C52.2869 61.5916 53.5979 63.127 54.0434 64.0421C54.7824 65.5614 54.9219 68.7647 54.4469 73.3054C53.9132 78.3889 52.9239 81.9932 51.506 84.0172C50.0544 86.0891 47.6944 87.1392 44.4922 87.1392H41.1081L43.7861 61.5916ZM51.8938 43.3433H34.7242C33.9166 43.3433 33.2223 44.4048 33.0682 45.8746L25.1019 121.866C25.0058 122.783 25.1357 123.732 25.456 124.453C25.7766 125.174 26.2541 125.591 26.758 125.591H35.6866C36.4945 125.591 37.1888 124.529 37.3429 123.06L39.1955 105.387H45.4523C48.9905 105.387 51.9691 104.672 54.3046 103.262C56.7065 101.815 58.9163 99.3619 60.8721 95.9708C62.4897 93.2117 63.8221 90.1147 64.8316 86.7648C65.8415 83.4139 66.567 79.6772 66.988 75.6584C68.0327 65.698 67.184 57.7219 64.4658 51.9533C61.774 46.2401 57.5439 43.3433 51.8938 43.3433ZM39.0611 90.2675H44.4922C48.092 90.2675 50.7734 89.0104 52.5352 86.4958C54.2973 83.9807 55.4857 79.783 56.1033 73.9008C56.6941 68.2532 56.425 64.2678 55.2959 61.9461C54.1654 59.6244 51.9048 58.4633 48.5127 58.4633H42.3952L39.0611 90.2675ZM51.8938 46.4716C57.0588 46.4716 60.8268 48.9846 63.1952 54.0112C65.5633 59.0378 66.2765 66.0541 65.3316 75.0619C64.9427 78.7726 64.2849 82.1652 63.3589 85.2387C62.4317 88.3144 61.2211 91.1267 59.725 93.6768C57.9421 96.7701 55.9616 98.9745 53.7821 100.287C51.6027 101.604 48.8269 102.259 45.4523 102.259H37.8044L35.6866 122.463H26.758L34.7242 46.4716H51.8938Z" fill="white"/>
<path d="M86.6318 103.824C86.3798 103.824 86.141 103.615 85.981 103.254C85.8205 102.894 85.7555 102.42 85.8036 101.961L89.3275 68.338C89.6627 65.1404 89.58 62.8452 89.0949 61.8755C88.798 61.2827 87.9059 60.2884 85.2684 60.2884H78.8843L74.4538 102.558C74.3767 103.293 74.0294 103.824 73.6256 103.824H64.7673C64.5154 103.824 64.2766 103.615 64.1163 103.254C63.956 102.894 63.8911 102.42 63.9392 101.961L71.9054 25.9696C71.9825 25.235 72.3298 24.7042 72.7336 24.7042H81.5918C81.8438 24.7042 82.0826 24.9128 82.2428 25.273C82.4031 25.6338 82.4681 26.1078 82.42 26.5666L80.4976 44.9077H87.3654C92.5974 44.9077 96.1452 46.6178 98.2116 50.1361C100.318 53.7253 100.975 59.4641 100.165 67.1951L96.4588 102.558C96.3817 103.293 96.0347 103.824 95.6306 103.824H86.6318Z" fill="black"/>
<path d="M81.5918 23.1398H72.7336C71.9257 23.1398 71.2313 24.2013 71.0772 25.6711L63.111 101.663C63.0148 102.58 63.1447 103.528 63.4653 104.249C63.7859 104.97 64.2634 105.387 64.7673 105.387H73.6256C74.4332 105.387 75.1278 104.326 75.2819 102.856L79.5797 61.8522H85.2684C87.9014 61.8522 88.454 62.895 88.4762 62.9398C88.636 63.2584 88.846 64.7339 88.4993 68.0394L84.9754 101.663C84.8792 102.58 85.0092 103.528 85.3297 104.249C85.6503 104.97 86.1278 105.387 86.6318 105.387H95.6306C96.4383 105.387 97.1329 104.326 97.287 102.856L100.993 67.4936C101.863 59.1927 101.119 52.9658 98.7825 48.9846C96.553 45.1884 92.8185 43.3433 87.3654 43.3433H81.5207L83.2482 26.865C83.3441 25.9479 83.2144 24.999 82.8939 24.2785C82.5733 23.5574 82.0958 23.1398 81.5918 23.1398ZM81.5918 26.2681L79.474 46.4715H87.3654C92.3308 46.4715 95.7558 48.0784 97.6407 51.288C99.5257 54.4997 100.09 59.7036 99.337 66.8971L95.6306 102.259H86.6318L90.1557 68.6364C90.5567 64.8116 90.4093 62.2026 89.713 60.8116C89.0165 59.4205 87.5347 58.724 85.2684 58.724H78.1886L73.6256 102.259H64.7673L72.7336 26.2681H81.5918Z" fill="white"/>
<path d="M114.181 88.7036C117.574 88.7036 120.107 87.5435 121.71 85.2568C123.295 82.994 124.39 79.0727 124.965 73.6024C125.5 68.4897 125.296 64.9198 124.359 62.9933C123.4 61.0256 121.329 60.0277 118.202 60.0277H112.78L109.774 88.7036H114.181ZM96.4475 124.027C96.1958 124.027 95.9568 123.819 95.7968 123.458C95.6365 123.097 95.5712 122.623 95.6193 122.165L103.586 46.1731C103.663 45.4385 104.01 44.9077 104.414 44.9077H121.583C126.979 44.9077 130.995 47.6241 133.52 52.9823C136.058 58.3682 136.841 65.8974 135.849 75.3605C135.445 79.2155 134.751 82.7959 133.785 86.0013C132.817 89.2104 131.539 92.1797 129.985 94.8283C128.125 98.0566 126.019 100.398 123.732 101.775C121.481 103.134 118.591 103.824 115.141 103.824H108.189L106.204 122.761C106.127 123.496 105.78 124.027 105.376 124.027H96.4475Z" fill="black"/>
<path d="M113.475 61.5916H118.202C121.976 61.5916 123.287 63.127 123.733 64.0421C124.472 65.5614 124.611 68.7647 124.136 73.3049C123.602 78.3889 122.613 81.9932 121.195 84.0172C119.744 86.0891 117.384 87.1392 114.181 87.1392H110.798L113.475 61.5916ZM121.583 43.3433H104.414C103.606 43.3433 102.912 44.4048 102.758 45.8746L94.7915 121.866C94.6953 122.783 94.8252 123.732 95.1455 124.453C95.4661 125.174 95.9436 125.591 96.4475 125.591H105.376C106.184 125.591 106.878 124.529 107.032 123.06L108.885 105.387H115.142C118.68 105.387 121.658 104.672 123.994 103.262C126.396 101.815 128.606 99.3614 130.562 95.9698C132.179 93.2112 133.511 90.1147 134.521 86.7648C135.531 83.4139 136.256 79.6772 136.677 75.6584C137.722 65.6974 136.873 57.7214 134.155 51.9528C131.463 46.2401 127.233 43.3433 121.583 43.3433ZM108.751 90.2675H114.181C117.781 90.2675 120.463 89.0104 122.224 86.4958C123.987 83.9807 125.175 79.783 125.793 73.9008C126.384 68.2532 126.115 64.2678 124.985 61.9461C123.855 59.6244 121.594 58.4633 118.202 58.4633H112.084L108.751 90.2675ZM121.583 46.4716C126.748 46.4716 130.516 48.9846 132.884 54.0112C135.253 59.0378 135.966 66.0541 135.021 75.0619C134.632 78.7726 133.974 82.1652 133.048 85.2387C132.121 88.3144 130.91 91.1267 129.414 93.6768C127.631 96.7701 125.651 98.9745 123.471 100.287C121.292 101.604 118.516 102.259 115.142 102.259H107.494L105.376 122.463H96.4475L104.414 46.4716H121.583Z" fill="white"/>
</g>
</g>
<defs>
<radialGradient id="paint0_radial_521_232" cx="0" cy="0" r="1" gradientUnits="userSpaceOnUse" gradientTransform="translate(48.9313 30.8302) scale(102.097 189.291)">
<stop stop-color="#AEB2D5"/>
<stop offset="0.3" stop-color="#AEB2D5"/>
<stop offset="0.75" stop-color="#484C89"/>
<stop offset="1" stop-color="#484C89"/>
</radialGradient>
<clipPath id="clip0_521_232">
<rect width="160" height="160" fill="white"/>
</clipPath>
</defs>
</svg>
