<svg width="160" height="163" viewBox="0 0 160 163" fill="none" xmlns="http://www.w3.org/2000/svg">
<g clip-path="url(#clip0_16_297)">
<path d="M0 81.1071C0 36.313 35.8173 0 80 0C124.183 0 160 36.313 160 81.1071C160 125.901 124.183 162.214 80 162.214C35.8173 162.214 0 125.901 0 81.1071Z" fill="#FF2BC2"/>
<path d="M7.99997 81.1068C7.99997 40.7921 40.2357 8.11035 80 8.11035C119.764 8.11035 152 40.7921 152 81.1068C152 121.421 119.764 154.103 80 154.103C40.2357 154.103 7.99997 121.421 7.99997 81.1068Z" fill="url(#paint0_radial_16_297)"/>
<path fill-rule="evenodd" clip-rule="evenodd" d="M82.3547 109.853L67.188 80.0339L81.488 52.1915C81.7587 51.6974 81.5963 51.3679 81.163 51.3679H72.442C71.907 51.3679 71.742 51.6356 71.477 52.0654L71.467 52.0817C70.5703 54.0343 69.6617 55.9947 68.7507 57.9602C66.305 63.2363 63.8437 68.5467 61.5547 73.8282H61.4463C59.0563 68.417 56.5493 63.095 54.033 57.7524C53.1273 55.8298 52.2203 53.9049 51.3173 51.9718C51.1547 51.4778 50.884 51.3679 50.3423 51.3679H41.0257C40.6467 51.3679 40.3217 51.7522 40.6467 52.1915L55.0007 80.9673L40.159 109.908C39.8883 110.237 39.9423 110.677 40.484 110.677H49.4757C49.909 110.677 50.1797 110.512 50.4507 110.073C53.9173 102.824 57.4923 94.8062 60.7423 87.4474H60.8507C64.4797 95.2455 68.0003 102.769 71.467 110.018C71.738 110.567 72.0087 110.732 72.6047 110.732H82.0297C82.463 110.732 82.6253 110.292 82.3547 109.853ZM85.6587 88.9303C85.6587 76.1347 93.7837 66.1402 107.108 66.1402C108.246 66.1402 108.842 66.1402 109.925 66.2501V51.9718C109.925 51.6423 110.196 51.4227 110.467 51.4227H119.188C119.621 51.4227 119.729 51.5876 119.729 51.862V102.055C119.729 103.538 119.729 105.405 120 107.437C120 107.821 120 107.876 119.675 108.041C115.125 110.238 110.358 111.226 105.808 111.226C94.0543 111.226 85.6587 103.867 85.6587 88.9303ZM109.925 74.8717C109.113 74.4872 108.083 74.3226 106.783 74.3226C99.9587 74.3226 95.4087 79.6493 95.4087 88.491C95.4087 98.5952 100.067 102.659 106.133 102.659C107.433 102.659 108.842 102.494 109.871 102.055V74.8717H109.925Z" fill="#FED7F0"/>
</g>
<defs>
<radialGradient id="paint0_radial_16_297" cx="0" cy="0" r="1" gradientUnits="userSpaceOnUse" gradientTransform="translate(65.41 56.7422) scale(93.8827 95.1819)">
<stop stop-color="#0E0E17" stop-opacity="0.85"/>
<stop offset="0.767" stop-color="#0E0E17"/>
</radialGradient>
<clipPath id="clip0_16_297">
<rect width="160" height="162.214" fill="white"/>
</clipPath>
</defs>
</svg>
