<svg width="160" height="160" viewBox="0 0 160 160" fill="none" xmlns="http://www.w3.org/2000/svg">
<path d="M0 80C0 35.8173 35.8173 0 80 0C124.183 0 160 35.8173 160 80C160 124.183 124.183 160 80 160C35.8173 160 0 124.183 0 80Z" fill="#333333"/>
<path d="M64 128C72.8367 128 80 120.836 80 112V95.9998H64C55.1633 95.9998 48 103.163 48 112C48 120.836 55.1633 128 64 128Z" fill="#0ACF83"/>
<path d="M48 80C48 71.1633 55.1633 64 64 64H80V96H64C55.1633 96 48 88.8363 48 80Z" fill="#A259FF"/>
<path d="M48 48.0001C48 39.1634 55.1633 32 64 32H80V64.0001H64C55.1633 64.0001 48 56.8364 48 48.0001Z" fill="#F24E1E"/>
<path d="M80 32H96C104.837 32 112 39.1634 112 48.0001C112 56.8364 104.837 64.0001 96 64.0001H80V32Z" fill="#FF7262"/>
<path d="M112 80C112 88.8363 104.837 96 96 96C87.1633 96 80 88.8363 80 80C80 71.1633 87.1633 64 96 64C104.837 64 112 71.1633 112 80Z" fill="#1ABCFE"/>
</svg>
