<svg width="160" height="160" viewBox="0 0 160 160" fill="none" xmlns="http://www.w3.org/2000/svg">
<path d="M160 0H0V160H160V0Z" fill="#061E26"/>
<path d="M151.899 8.10127V151.899H8.10127V8.10127H151.899ZM160 0H0V160H160V0Z" fill="#26C9FF"/>
<path d="M79.1899 63.7974C79.1899 71.0886 76.7595 76.7594 71.6962 80.6075C66.6329 84.4556 59.5443 86.481 50.2279 86.481H41.7215V114.835H33.2152V42.7341H52.0507C70.2785 42.7341 79.1899 49.8227 79.1899 63.7974ZM41.7215 79.3924H49.2152C56.7089 79.3924 61.9747 78.1772 65.4177 75.7468C68.6582 73.3164 70.481 69.4683 70.481 64.2025C70.481 59.3417 68.8608 55.8987 65.8228 53.4683C62.7848 51.0379 57.7215 50.0253 51.2405 50.0253H41.9241V79.3924H41.7215Z" fill="#D9F5FF" stroke="#D9F5FF" stroke-width="2" stroke-miterlimit="10"/>
<path d="M128 100.253C128 105.316 126.177 109.165 122.329 112C118.481 114.835 113.215 116.051 106.532 116.051C99.4431 116.051 93.7722 114.835 89.7216 112.608V104.911C92.3545 106.329 95.1899 107.342 98.0254 107.949C101.063 108.759 103.899 109.165 106.734 109.165C110.987 109.165 114.228 108.557 116.658 107.139C118.886 105.722 120.101 103.696 120.101 100.861C120.101 98.8354 119.089 97.0126 117.266 95.3924C115.443 93.9747 111.798 92.1519 106.532 90.1266C101.468 88.3038 97.8228 86.6835 95.7975 85.2658C93.7722 83.8481 92.152 82.2278 91.1393 80.4051C90.1266 78.5823 89.519 76.5569 89.519 74.1266C89.519 69.6709 91.3418 66.2278 94.9874 63.5949C98.633 60.962 103.494 59.7468 109.772 59.7468C115.646 59.7468 121.317 60.962 126.785 63.3924L123.949 70.0759C118.481 67.8481 113.62 66.6329 109.165 66.6329C105.317 66.6329 102.279 67.2405 100.456 68.4557C98.4304 69.6709 97.4178 71.2911 97.4178 73.519C97.4178 74.9367 97.8228 76.1519 98.4304 77.1645C99.2406 78.1772 100.456 79.1899 102.076 80C103.696 81.0126 106.937 82.2278 111.595 84.0506C118.076 86.481 122.329 88.7089 124.557 91.1392C126.987 93.7721 128 96.6076 128 100.253Z" fill="#D9F5FF" stroke="#D9F5FF" stroke-width="2" stroke-miterlimit="10"/>
</svg>
