<svg width="160" height="160" viewBox="0 0 160 160" fill="none" xmlns="http://www.w3.org/2000/svg">
<path d="M0 80C0 35.8173 35.8173 0 80 0C124.183 0 160 35.8173 160 80C160 124.183 124.183 160 80 160C35.8173 160 0 124.183 0 80Z" fill="#F37021"/>
<path d="M8 79.9998C8 40.2354 40.2357 7.99976 80 7.99976C119.764 7.99976 152 40.2354 152 79.9998C152 119.764 119.764 152 80 152C40.2357 152 8 119.764 8 79.9998Z" fill="url(#paint0_radial_16_351)"/>
<path fill-rule="evenodd" clip-rule="evenodd" d="M99.159 50.2656C99.159 46.2269 101.955 43.8452 105.579 43.8452C109.411 43.8452 112 46.4339 112 50.2656C112 54.4079 109.308 56.6862 105.476 56.6862C101.748 56.6862 99.159 54.4079 99.159 50.2656ZM48.4491 114.164L53.4197 95.3459H53.4204H73.5104L78.688 114.267C78.791 114.681 79.1024 114.802 79.6194 114.802H89.9751C90.4931 114.802 90.5964 114.491 90.493 113.974L70.507 46.2289C70.403 45.7109 70.1957 45.6075 69.7817 45.6075H56.6307C56.3194 45.6075 56.112 45.8145 56.112 46.2289C56.0087 49.3355 55.8014 50.3159 55.4907 51.4549L37.6791 113.87C37.5764 114.595 37.6791 114.802 38.2994 114.802H47.5177C48.1384 114.802 48.3461 114.681 48.4491 114.164ZM68.94 77.5325L68.9404 77.5332C69.7181 80.4969 70.4174 83.1609 70.9214 85.1472H56.1127L56.2814 84.5135C58.843 74.8799 62.044 62.8432 63.3617 55.6492H63.4654C64.5734 60.8965 67.001 70.1446 68.94 77.5322V77.5325ZM100.587 63.8082C100.069 63.8082 99.862 64.0152 99.862 64.5332V113.974C99.862 114.491 100.069 114.802 100.69 114.802H110.434C111.055 114.802 111.159 114.595 111.159 114.077V64.5332C111.159 64.0152 110.952 63.8082 110.434 63.8082H100.587Z" fill="#FF7F18"/>
<defs>
<radialGradient id="paint0_radial_16_351" cx="0" cy="0" r="1" gradientUnits="userSpaceOnUse" gradientTransform="translate(65.41 55.9678) scale(93.8827 93.8827)">
<stop stop-color="#1C0A00" stop-opacity="0.85"/>
<stop offset="0.767" stop-color="#1C0A00"/>
</radialGradient>
</defs>
</svg>
